<?xml version="1.0" encoding="UTF-8" standalone="no"?><!DOCTYPE svg PUBLIC "-//W3C//DTD SVG 1.1//EN" "http://www.w3.org/Graphics/SVG/1.1/DTD/svg11.dtd"><svg width="100%" height="100%" viewBox="0 0 554 201" version="1.1" xmlns="http://www.w3.org/2000/svg" xmlns:xlink="http://www.w3.org/1999/xlink" xml:space="preserve" xmlns:serif="http://www.serif.com/" style="fill-rule:evenodd;clip-rule:evenodd;stroke-linejoin:round;stroke-miterlimit:1.41421;"><rect id="BMHlogotext" x="0" y="0" width="553.44" height="200.203" style="fill:none;"/><clipPath id="_clip1"><rect x="0" y="0" width="553.44" height="200.203"/></clipPath><g clip-path="url(#_clip1)"><path d="M71.812,56.205l21.043,0l-42.086,71.314l31.566,54.945l52.608,0l-7.799,12.996c-1.691,2.816 -4.735,4.54 -8.02,4.54l-41.928,0c-3.333,0 -6.413,-1.773 -8.087,-4.656l-39.382,-67.825l42.085,-71.314Z" style="fill:#fff;fill-rule:nonzero;"/><path d="M60.122,56.205l-14.951,0c-3.768,0 -7.249,2.016 -9.126,5.286l-33.032,57.57c-3.018,5.259 -3.104,11.703 -0.23,17.042l18.407,32.288c1.664,2.918 4.765,4.721 8.125,4.721l15.61,0l-25.72,-45.593l40.917,-71.314Z" style="fill:#fff;fill-rule:nonzero;"/><path d="M71.812,56.205l21.043,0l-42.086,71.314l31.566,54.945l52.608,0l-7.799,12.996c-1.691,2.816 -4.735,4.54 -8.02,4.54l-41.928,0c-3.333,0 -6.413,-1.773 -8.087,-4.656l-39.382,-67.825l42.085,-71.314Z" style="fill:#fff;fill-rule:nonzero;"/><path d="M60.122,56.205l-14.951,0c-3.768,0 -7.249,2.016 -9.126,5.286l-33.032,57.57c-3.018,5.259 -3.104,11.703 -0.23,17.042l18.407,32.288c1.664,2.918 4.765,4.721 8.125,4.721l15.61,0l-25.72,-45.593l40.917,-71.314Z" style="fill:#fff;fill-rule:nonzero;"/><path d="M74.037,145.603l-10.838,-18.038l82.804,-0.654l30.84,-55.355l-27.095,-45.093l15.155,-0.011c3.285,-0.001 6.33,1.72 8.022,4.536l21.595,35.94c1.716,2.856 1.783,6.411 0.175,9.331l-37.854,68.69l-82.804,0.654Z" style="fill:#fff;fill-rule:nonzero;"/><path d="M80.058,155.623l7.699,12.815c1.941,3.231 5.462,5.176 9.232,5.1l66.361,-1.336c6.061,-0.123 11.629,-3.368 14.725,-8.58l18.196,-32.407c1.646,-2.929 1.592,-6.516 -0.137,-9.396l-8.04,-13.38l-25.835,45.528l-82.201,1.656Z" style="fill:#fff;fill-rule:nonzero;"/><path d="M149.44,99.934l-10.522,18.224l-40.716,-72.104l-63.366,-0.137l-26.304,45.56l-7.356,-13.251c-1.595,-2.872 -1.566,-6.371 0.077,-9.216l20.964,-36.311c1.667,-2.886 4.744,-4.668 8.077,-4.676l78.431,-0.193l40.715,72.104Z" style="fill:#fff;fill-rule:nonzero;"/><path d="M155.285,89.809l7.474,-12.946c1.886,-3.264 1.88,-7.287 -0.013,-10.547l-33.341,-57.392c-3.046,-5.243 -8.584,-8.54 -14.644,-8.72l-37.166,-0.204c-3.358,-0.019 -6.47,1.767 -8.15,4.676l-7.804,13.519l52.344,0.522l41.3,71.092Z" style="fill:#fff;fill-rule:nonzero;"/><path d="M301.984,134.743c3.287,-2.72 4.931,-6.957 4.931,-12.711c0,-11.401 -6.267,-17.101 -18.796,-17.101l-23.727,0l0,33.895l23.727,0c5.954,0 10.577,-1.36 13.865,-4.083m-37.592,-44.912l17.717,0c5.34,0 9.399,-1.077 12.172,-3.235c2.774,-2.157 4.16,-5.854 4.16,-11.093c0,-5.239 -1.386,-8.96 -4.16,-11.169c-2.773,-2.208 -6.832,-3.314 -12.172,-3.314l-17.717,0l0,28.811Zm55.079,15.1c3.544,4.725 5.317,10.784 5.317,18.18c0,9.552 -3.083,17.077 -9.245,22.571c-6.163,5.496 -14.638,8.242 -25.422,8.242l-42.524,0l0,-107.848l36.823,0c10.065,0 17.743,2.21 23.035,6.624c5.288,4.418 7.934,10.94 7.934,19.568c0,5.238 -0.978,9.81 -2.929,13.712c-1.951,3.904 -4.776,6.932 -8.472,9.09c6.779,1.849 11.94,5.137 15.483,9.861" style="fill:#fff;fill-rule:nonzero;"/><path d="M431.093,153.925l-9.86,-77.498l-28.502,53.155l-28.966,-53l-9.861,77.343l-17.563,0l14.79,-107.85l14.021,0l27.424,51.614l27.271,-51.614l14.174,0l14.638,107.85l-17.566,0Z" style="fill:#fff;fill-rule:nonzero;"/><path d="M467.148,46.076l16.795,0l0,43.756l52.382,0l0,-43.756l16.795,0l0,107.849l-16.795,0l0,-48.224l-52.382,0l0,48.224l-16.795,0l0,-107.849Z" style="fill:#fff;fill-rule:nonzero;"/></g></svg>