<?xml version="1.0" encoding="UTF-8"?>
<svg width="85px" height="84px" viewBox="0 0 85 84" version="1.1" xmlns="http://www.w3.org/2000/svg" xmlns:xlink="http://www.w3.org/1999/xlink">
    <!-- Generator: Sketch 61.2 (89653) - https://sketch.com -->
    <title>cloud-computing</title>
    <desc>Created with Sketch.</desc>
    <g id="General" stroke="none" stroke-width="1" fill="none" fill-rule="evenodd">
        <g id="Homepage---1440-⚠️" transform="translate(-758.000000, -1508.000000)" fill="#FF3037" fill-rule="nonzero" stroke="#FF3037" stroke-width="0.5">
            <g id="Group-30" transform="translate(0.000000, 1185.000000)">
                <g id="Group-38" transform="translate(705.000000, 324.000000)">
                    <g id="cloud-computing" transform="translate(54.000000, 0.000000)">
                        <circle id="Oval" cx="41.5" cy="74.5622407" r="1.7219917"></circle>
                        <path d="M82.8278008,70.2572614 L48.6535599,70.2572614 C47.9265562,69.0047007 46.8853408,67.9634853 45.6327801,67.2364816 L45.6327801,45.4605809 L42.8775934,45.4605809 L42.8775934,66.24147 C41.9658211,66.0854851 41.0341789,66.0854851 40.1224066,66.24147 L40.1224066,45.4605809 L37.3672199,45.4605809 L37.3672199,67.2364816 C36.1146592,67.9634853 35.0734438,69.0047007 34.3464401,70.2572614 L0.17219917,70.2572614 L0.17219917,73.0124481 L33.3514388,73.0124481 C33.1954402,73.9242192 33.1954402,74.8558638 33.3514388,75.7676349 L0.17219917,75.7676349 L0.17219917,78.5228216 L34.3464401,78.5228216 C35.8209039,81.0799735 38.5482091,82.6556022 41.5,82.6556022 C44.4517909,82.6556022 47.1790961,81.0799735 48.6535599,78.5228216 L82.8278008,78.5228216 L82.8278008,75.7676349 L49.6485612,75.7676349 C49.8045598,74.8558638 49.8045598,73.9242192 49.6485612,73.0124481 L82.8278008,73.0124481 L82.8278008,70.2572614 Z M41.5,79.9004149 C38.4567048,79.9004149 35.9896266,77.4333367 35.9896266,74.3900415 C35.9896266,71.3467463 38.4567048,68.879668 41.5,68.879668 C44.5432952,68.879668 47.0103734,71.3467463 47.0103734,74.3900415 C47.0069571,77.4319205 44.541879,79.8969986 41.5,79.9004149 Z" id="Shape"></path>
                        <polygon id="Path" points="37.3672199 39.9502075 40.1224066 39.9502075 40.1224066 42.7053942 37.3672199 42.7053942"></polygon>
                        <polygon id="Path" points="37.3672199 34.439834 40.1224066 34.439834 40.1224066 37.1950207 37.3672199 37.1950207"></polygon>
                        <polygon id="Path" points="42.8775934 39.9502075 45.6327801 39.9502075 45.6327801 42.7053942 42.8775934 42.7053942"></polygon>
                        <polygon id="Path" points="42.8775934 34.439834 45.6327801 34.439834 45.6327801 37.1950207 42.8775934 37.1950207"></polygon>
                        <path d="M70.4294606,30.3070539 L68.9661878,30.3070539 C68.5673381,27.1436083 66.8180902,24.3078949 64.1699958,22.5319262 C61.5219013,20.7559575 58.2344736,20.2137784 55.156331,21.0453474 C53.9628306,9.24263031 43.9690141,0 31.8568465,0 C18.9435067,0 8.43775934,10.5057474 8.43775934,23.4190871 C8.43846034,25.1203411 8.62397391,26.8164848 8.99103527,28.4776685 C2.79966504,30.8648711 -0.809638469,37.3271152 0.404881474,43.8506682 C1.61940142,50.3742211 7.31248655,55.1045966 13.9481328,55.1037344 L34.6120332,55.1037344 L34.6120332,52.3485477 L13.9481328,52.3485477 C8.68721333,52.3488556 4.15972458,48.6304723 3.13744302,43.4698315 C2.11516147,38.3091906 4.88320653,33.1456206 9.74695174,31.1403137 C10.1819336,32.3931011 10.7235685,33.6062708 11.3659012,34.7664838 L13.7750089,33.4295863 C9.36886761,25.4522081 10.7099922,15.5301007 17.0758619,9.00872461 C23.4417316,2.48734849 33.3285888,0.907195287 41.4099639,5.1195606 C49.4913389,9.33192591 53.8582342,18.3417569 52.1580179,27.2950752 L54.8649424,27.8086455 C55.1089786,26.5170267 55.244598,25.2072657 55.2703836,23.8930481 C57.8006541,22.9972737 60.6083187,23.3856541 62.8004053,24.9346656 C64.9924919,26.483677 66.2961227,29.0004938 66.2966805,31.6846473 C66.29667,32.050011 66.4418055,32.4004134 66.7001567,32.6587645 C66.9585078,32.9171157 67.3089102,33.0622512 67.6742739,33.0622407 L70.4294606,33.0622407 C75.7552272,33.0622407 80.0726141,37.3796276 80.0726141,42.7053942 C80.0726141,48.0311608 75.7552272,52.3485477 70.4294606,52.3485477 L48.3879668,52.3485477 L48.3879668,55.1037344 L70.4294606,55.1037344 C77.2768747,55.1037344 82.8278006,49.5528083 82.8278006,42.7053942 C82.8278006,35.8579801 77.2768747,30.3070541 70.4294606,30.3070539 L70.4294606,30.3070539 Z" id="Path"></path>
                    </g>
                </g>
            </g>
        </g>
    </g>
</svg>