<?xml version="1.0" encoding="UTF-8"?>
<svg width="83px" height="83px" viewBox="0 0 83 83" version="1.1" xmlns="http://www.w3.org/2000/svg" xmlns:xlink="http://www.w3.org/1999/xlink">
    <!-- Generator: Sketch 61.2 (89653) - https://sketch.com -->
    <title>contamination</title>
    <desc>Created with Sketch.</desc>
    <g id="General" stroke="none" stroke-width="1" fill="none" fill-rule="evenodd">
        <g id="Homepage---1440-⚠️" transform="translate(-249.000000, -1509.000000)" fill="#FF3037" fill-rule="nonzero">
            <g id="Group-30" transform="translate(0.000000, 1185.000000)">
                <g id="Group-43" transform="translate(195.000000, 324.000000)">
                    <g id="contamination" transform="translate(54.000000, 0.000000)">
                        <path d="M83,61.5806452 C83,59.8242581 82.5060161,58.1856774 81.6612903,56.7786935 L81.6612903,6.69354839 C81.6612903,5.95458065 81.0628871,5.35483871 80.3225806,5.35483871 L48.1935484,5.35483871 C47.4532419,5.35483871 46.8548387,5.95458065 46.8548387,6.69354839 L46.8548387,21.4193548 L36.1451613,21.4193548 L36.1451613,1.33870968 C36.1451613,0.599741935 35.5467581,0 34.8064516,0 L2.67741935,0 C1.9371129,0 1.33870968,0.599741935 1.33870968,1.33870968 L1.33870968,61.1656452 C0.493983871,62.4374194 0,63.9595323 0,65.5967742 C0,68.6476935 1.7015,71.3545645 4.35616129,72.708 C4.12991935,73.4483065 4.01612903,74.2046774 4.01612903,74.9677419 C4.01612903,79.3975323 7.61859677,83 12.0483871,83 L70.9516129,83 C76.1176935,83 80.3225806,78.7951129 80.3225806,73.6290323 C80.3225806,72.0373065 79.9276613,70.5058226 79.1699516,69.1336452 C81.5622258,67.3839516 83,64.6047903 83,61.5806452 Z M49.5322581,8.03225806 L78.983871,8.03225806 L78.983871,53.9018065 C77.4644355,52.838871 75.6196935,52.2096774 73.6290323,52.2096774 C71.1082419,52.2096774 68.7226613,53.2150484 66.9649355,54.9928548 C66.0144516,54.8482742 65.0853871,54.8549677 64.1643548,54.9995484 C63.9140161,53.3716774 63.1522903,51.9231935 62.0773065,50.7705645 C62.5699516,50.5724355 62.9193548,50.0958548 62.9193548,49.5322581 L62.9193548,44.1774194 C62.9193548,43.4371129 62.3209516,42.8387097 61.5806452,42.8387097 L54.8870968,42.8387097 L54.8870968,40.1612903 L61.5806452,40.1612903 C62.3209516,40.1612903 62.9193548,39.5615484 62.9193548,38.8225806 L62.9193548,33.4677419 C62.9193548,32.7287742 62.3209516,32.1290323 61.5806452,32.1290323 L54.8870968,32.1290323 L54.8870968,29.4516129 L61.5806452,29.4516129 C62.3209516,29.4516129 62.9193548,28.851871 62.9193548,28.1129032 L62.9193548,22.7580645 C62.9193548,22.0190968 62.3209516,21.4193548 61.5806452,21.4193548 L53.5483871,21.4193548 L49.5322581,21.4193548 L49.5322581,8.03225806 Z M60.2419355,24.0967742 L60.2419355,26.7741935 L54.8870968,26.7741935 L54.8870968,24.0967742 L60.2419355,24.0967742 Z M54.8870968,34.8064516 L60.2419355,34.8064516 L60.2419355,37.483871 L54.8870968,37.483871 L54.8870968,34.8064516 Z M54.8870968,48.1935484 L54.8870968,45.516129 L60.2419355,45.516129 L60.2419355,48.1935484 L54.8870968,48.1935484 Z M52.2096774,24.0967742 L52.2096774,28.1129032 L52.2096774,33.4677419 L52.2096774,38.8225806 L52.2096774,44.1774194 L52.2096774,49.302 C51.3073871,49.8307903 50.5028226,50.5229032 49.8602419,51.3622742 C48.1065323,49.3689355 45.5710161,48.1935484 42.8387097,48.1935484 C40.2295645,48.1935484 37.8546935,49.2725484 36.1451613,51.0195645 L36.1451613,24.0967742 L52.2096774,24.0967742 Z M33.4677419,2.67741935 L33.4677419,54.9848226 C30.6189677,54.6260484 27.689871,55.4480161 25.4609194,57.2258226 C24.0084194,54.9687581 21.5010161,53.5483871 18.7419355,53.5483871 C15.511629,53.5483871 12.666871,55.4734516 11.4071452,58.3262419 C10.3522419,57.8242258 9.21032258,57.5645161 8.03225806,57.5645161 C6.56904839,57.5645161 5.19954839,57.9647903 4.01612903,58.6515484 L4.01612903,2.67741935 L33.4677419,2.67741935 Z M76.2408548,69.5392742 C77.1592097,70.725371 77.6451613,72.1403871 77.6451613,73.6290323 C77.6451613,77.3198548 74.6424355,80.3225806 70.9516129,80.3225806 L12.0483871,80.3225806 C9.09519355,80.3225806 6.69354839,77.9209355 6.69354839,74.9677419 C6.69354839,74.1591613 6.89301613,73.3559355 7.28793548,72.5754677 C7.46598387,72.2220484 7.47937097,71.8097258 7.32408065,71.4455968 C7.16879032,71.0828065 6.85954839,70.8043548 6.48203226,70.6905645 C4.20756452,69.9984516 2.67741935,67.9515645 2.67741935,65.5967742 C2.67741935,62.6435806 5.07906452,60.2419355 8.03225806,60.2419355 C9.22370968,60.2419355 10.365629,60.6502419 11.3375323,61.4213387 C11.7056774,61.7145161 12.201,61.7894839 12.6414355,61.6261613 C13.081871,61.4601613 13.4031613,61.0759516 13.4875,60.6127581 C13.9520323,58.0705484 16.1609032,56.2258065 18.7419355,56.2258065 C21.0257742,56.2258065 23.0552581,57.6970484 23.7902097,59.8845 C23.9428226,60.3396613 24.328371,60.6783548 24.7995968,60.7707258 C25.2681452,60.871129 25.7540968,60.6984355 26.0700323,60.3369839 C28.1262903,57.9714839 31.4998387,57.0089516 34.4731129,57.9125806 C34.8533065,58.0277097 35.2629516,57.9688065 35.597629,57.7532742 C35.929629,57.5350645 36.1478387,57.1816452 36.1933548,56.7867258 C36.5842581,53.4145161 39.4410645,50.8709677 42.8387097,50.8709677 C45.350129,50.8709677 47.6286129,52.2618871 48.7852581,54.5028871 C49.0302419,54.9741129 49.5014677,55.2525645 50.0543548,55.2244516 C50.5831452,55.1936613 51.0423226,54.853629 51.2284032,54.3583065 C52.0102097,52.2725968 54.0182742,50.8709677 56.2258065,50.8709677 C59.179,50.8709677 61.5806452,53.2726129 61.5672581,56.3342419 C61.553871,56.4266129 61.5418226,56.5203226 61.5364677,56.6140323 C61.5043387,57.0665161 61.7024677,57.5042742 62.0639194,57.7787097 C62.4267097,58.0504677 62.8992742,58.1254355 63.3276613,57.9701452 C64.5565968,57.5243548 65.8123065,57.4386774 67.1429839,57.7519355 C67.635629,57.8724194 68.1563871,57.6970484 68.4803548,57.3061452 C69.7574839,55.7679677 71.6356935,54.8870968 73.6290323,54.8870968 C77.3198548,54.8870968 80.3225806,57.8898226 80.3225806,61.5806452 C80.3225806,64.0947419 78.9289839,66.3745645 76.6853065,67.529871 C76.3318871,67.7119355 76.0775323,68.0412581 75.9905161,68.4308226 C75.9048387,68.8190484 75.9972097,69.2260161 76.2408548,69.5392742 Z" id="Shape"></path>
                        <rect id="Rectangle" x="48.1935484" y="74.9677419" width="18.7419355" height="2.67741935"></rect>
                        <rect id="Rectangle" x="69.6129032" y="74.9677419" width="2.67741935" height="2.67741935"></rect>
                        <path d="M8.03225806,13.3870968 L16.0645161,13.3870968 C16.8048226,13.3870968 17.4032258,12.7873548 17.4032258,12.0483871 L17.4032258,6.69354839 C17.4032258,5.95458065 16.8048226,5.35483871 16.0645161,5.35483871 L8.03225806,5.35483871 C7.29195161,5.35483871 6.69354839,5.95458065 6.69354839,6.69354839 L6.69354839,12.0483871 C6.69354839,12.7873548 7.29195161,13.3870968 8.03225806,13.3870968 Z M9.37096774,8.03225806 L14.7258065,8.03225806 L14.7258065,10.7096774 L9.37096774,10.7096774 L9.37096774,8.03225806 Z" id="Shape"></path>
                        <path d="M21.4193548,13.3870968 L29.4516129,13.3870968 C30.1919194,13.3870968 30.7903226,12.7873548 30.7903226,12.0483871 L30.7903226,6.69354839 C30.7903226,5.95458065 30.1919194,5.35483871 29.4516129,5.35483871 L21.4193548,5.35483871 C20.6790484,5.35483871 20.0806452,5.95458065 20.0806452,6.69354839 L20.0806452,12.0483871 C20.0806452,12.7873548 20.6790484,13.3870968 21.4193548,13.3870968 Z M22.7580645,8.03225806 L28.1129032,8.03225806 L28.1129032,10.7096774 L22.7580645,10.7096774 L22.7580645,8.03225806 Z" id="Shape"></path>
                        <path d="M8.03225806,24.0967742 L16.0645161,24.0967742 C16.8048226,24.0967742 17.4032258,23.4970323 17.4032258,22.7580645 L17.4032258,17.4032258 C17.4032258,16.6642581 16.8048226,16.0645161 16.0645161,16.0645161 L8.03225806,16.0645161 C7.29195161,16.0645161 6.69354839,16.6642581 6.69354839,17.4032258 L6.69354839,22.7580645 C6.69354839,23.4970323 7.29195161,24.0967742 8.03225806,24.0967742 Z M9.37096774,18.7419355 L14.7258065,18.7419355 L14.7258065,21.4193548 L9.37096774,21.4193548 L9.37096774,18.7419355 Z" id="Shape"></path>
                        <path d="M21.4193548,24.0967742 L29.4516129,24.0967742 C30.1919194,24.0967742 30.7903226,23.4970323 30.7903226,22.7580645 L30.7903226,17.4032258 C30.7903226,16.6642581 30.1919194,16.0645161 29.4516129,16.0645161 L21.4193548,16.0645161 C20.6790484,16.0645161 20.0806452,16.6642581 20.0806452,17.4032258 L20.0806452,22.7580645 C20.0806452,23.4970323 20.6790484,24.0967742 21.4193548,24.0967742 Z M22.7580645,18.7419355 L28.1129032,18.7419355 L28.1129032,21.4193548 L22.7580645,21.4193548 L22.7580645,18.7419355 Z" id="Shape"></path>
                        <path d="M8.03225806,34.8064516 L16.0645161,34.8064516 C16.8048226,34.8064516 17.4032258,34.2067097 17.4032258,33.4677419 L17.4032258,28.1129032 C17.4032258,27.3739355 16.8048226,26.7741935 16.0645161,26.7741935 L8.03225806,26.7741935 C7.29195161,26.7741935 6.69354839,27.3739355 6.69354839,28.1129032 L6.69354839,33.4677419 C6.69354839,34.2067097 7.29195161,34.8064516 8.03225806,34.8064516 Z M9.37096774,29.4516129 L14.7258065,29.4516129 L14.7258065,32.1290323 L9.37096774,32.1290323 L9.37096774,29.4516129 Z" id="Shape"></path>
                        <path d="M21.4193548,34.8064516 L29.4516129,34.8064516 C30.1919194,34.8064516 30.7903226,34.2067097 30.7903226,33.4677419 L30.7903226,28.1129032 C30.7903226,27.3739355 30.1919194,26.7741935 29.4516129,26.7741935 L21.4193548,26.7741935 C20.6790484,26.7741935 20.0806452,27.3739355 20.0806452,28.1129032 L20.0806452,33.4677419 C20.0806452,34.2067097 20.6790484,34.8064516 21.4193548,34.8064516 Z M22.7580645,29.4516129 L28.1129032,29.4516129 L28.1129032,32.1290323 L22.7580645,32.1290323 L22.7580645,29.4516129 Z" id="Shape"></path>
                        <path d="M8.03225806,45.516129 L16.0645161,45.516129 C16.8048226,45.516129 17.4032258,44.9177258 17.4032258,44.1774194 L17.4032258,38.8225806 C17.4032258,38.0836129 16.8048226,37.483871 16.0645161,37.483871 L8.03225806,37.483871 C7.29195161,37.483871 6.69354839,38.0836129 6.69354839,38.8225806 L6.69354839,44.1774194 C6.69354839,44.9177258 7.29195161,45.516129 8.03225806,45.516129 Z M9.37096774,40.1612903 L14.7258065,40.1612903 L14.7258065,42.8387097 L9.37096774,42.8387097 L9.37096774,40.1612903 Z" id="Shape"></path>
                        <path d="M21.4193548,45.516129 L29.4516129,45.516129 C30.1919194,45.516129 30.7903226,44.9177258 30.7903226,44.1774194 L30.7903226,38.8225806 C30.7903226,38.0836129 30.1919194,37.483871 29.4516129,37.483871 L21.4193548,37.483871 C20.6790484,37.483871 20.0806452,38.0836129 20.0806452,38.8225806 L20.0806452,44.1774194 C20.0806452,44.9177258 20.6790484,45.516129 21.4193548,45.516129 Z M22.7580645,40.1612903 L28.1129032,40.1612903 L28.1129032,42.8387097 L22.7580645,42.8387097 L22.7580645,40.1612903 Z" id="Shape"></path>
                        <path d="M61.5806452,18.7419355 C62.3209516,18.7419355 62.9193548,18.1421935 62.9193548,17.4032258 L62.9193548,12.0483871 C62.9193548,11.3094194 62.3209516,10.7096774 61.5806452,10.7096774 L53.5483871,10.7096774 C52.8080806,10.7096774 52.2096774,11.3094194 52.2096774,12.0483871 L52.2096774,17.4032258 C52.2096774,18.1421935 52.8080806,18.7419355 53.5483871,18.7419355 L61.5806452,18.7419355 Z M54.8870968,13.3870968 L60.2419355,13.3870968 L60.2419355,16.0645161 L54.8870968,16.0645161 L54.8870968,13.3870968 Z" id="Shape"></path>
                        <path d="M66.9354839,18.7419355 L74.9677419,18.7419355 C75.7080484,18.7419355 76.3064516,18.1421935 76.3064516,17.4032258 L76.3064516,12.0483871 C76.3064516,11.3094194 75.7080484,10.7096774 74.9677419,10.7096774 L66.9354839,10.7096774 C66.1951774,10.7096774 65.5967742,11.3094194 65.5967742,12.0483871 L65.5967742,17.4032258 C65.5967742,18.1421935 66.1951774,18.7419355 66.9354839,18.7419355 Z M68.2741935,13.3870968 L73.6290323,13.3870968 L73.6290323,16.0645161 L68.2741935,16.0645161 L68.2741935,13.3870968 Z" id="Shape"></path>
                        <path d="M66.9354839,29.4516129 L74.9677419,29.4516129 C75.7080484,29.4516129 76.3064516,28.851871 76.3064516,28.1129032 L76.3064516,22.7580645 C76.3064516,22.0190968 75.7080484,21.4193548 74.9677419,21.4193548 L66.9354839,21.4193548 C66.1951774,21.4193548 65.5967742,22.0190968 65.5967742,22.7580645 L65.5967742,28.1129032 C65.5967742,28.851871 66.1951774,29.4516129 66.9354839,29.4516129 Z M68.2741935,24.0967742 L73.6290323,24.0967742 L73.6290323,26.7741935 L68.2741935,26.7741935 L68.2741935,24.0967742 Z" id="Shape"></path>
                        <path d="M66.9354839,40.1612903 L74.9677419,40.1612903 C75.7080484,40.1612903 76.3064516,39.5615484 76.3064516,38.8225806 L76.3064516,33.4677419 C76.3064516,32.7287742 75.7080484,32.1290323 74.9677419,32.1290323 L66.9354839,32.1290323 C66.1951774,32.1290323 65.5967742,32.7287742 65.5967742,33.4677419 L65.5967742,38.8225806 C65.5967742,39.5615484 66.1951774,40.1612903 66.9354839,40.1612903 Z M68.2741935,34.8064516 L73.6290323,34.8064516 L73.6290323,37.483871 L68.2741935,37.483871 L68.2741935,34.8064516 Z" id="Shape"></path>
                        <path d="M66.9354839,50.8709677 L74.9677419,50.8709677 C75.7080484,50.8709677 76.3064516,50.2725645 76.3064516,49.5322581 L76.3064516,44.1774194 C76.3064516,43.4371129 75.7080484,42.8387097 74.9677419,42.8387097 L66.9354839,42.8387097 C66.1951774,42.8387097 65.5967742,43.4371129 65.5967742,44.1774194 L65.5967742,49.5322581 C65.5967742,50.2725645 66.1951774,50.8709677 66.9354839,50.8709677 Z M68.2741935,45.516129 L73.6290323,45.516129 L73.6290323,48.1935484 L68.2741935,48.1935484 L68.2741935,45.516129 Z" id="Shape"></path>
                        <path d="M40.1612903,34.8064516 L48.1935484,34.8064516 C48.9338548,34.8064516 49.5322581,34.2067097 49.5322581,33.4677419 L49.5322581,28.1129032 C49.5322581,27.3739355 48.9338548,26.7741935 48.1935484,26.7741935 L40.1612903,26.7741935 C39.4209839,26.7741935 38.8225806,27.3739355 38.8225806,28.1129032 L38.8225806,33.4677419 C38.8225806,34.2067097 39.4209839,34.8064516 40.1612903,34.8064516 Z M41.5,29.4516129 L46.8548387,29.4516129 L46.8548387,32.1290323 L41.5,32.1290323 L41.5,29.4516129 Z" id="Shape"></path>
                        <path d="M40.1612903,45.516129 L48.1935484,45.516129 C48.9338548,45.516129 49.5322581,44.9177258 49.5322581,44.1774194 L49.5322581,38.8225806 C49.5322581,38.0836129 48.9338548,37.483871 48.1935484,37.483871 L40.1612903,37.483871 C39.4209839,37.483871 38.8225806,38.0836129 38.8225806,38.8225806 L38.8225806,44.1774194 C38.8225806,44.9177258 39.4209839,45.516129 40.1612903,45.516129 Z M41.5,40.1612903 L46.8548387,40.1612903 L46.8548387,42.8387097 L41.5,42.8387097 L41.5,40.1612903 Z" id="Shape"></path>
                    </g>
                </g>
            </g>
        </g>
    </g>
</svg>