<?xml version="1.0" encoding="UTF-8" standalone="no"?>
<!DOCTYPE svg PUBLIC "-//W3C//DTD SVG 1.1//EN" "http://www.w3.org/Graphics/SVG/1.1/DTD/svg11.dtd">
<svg width="100%" height="83px" viewBox="0 0 75 85" version="1.1" xmlns="http://www.w3.org/2000/svg" xmlns:xlink="http://www.w3.org/1999/xlink" xml:space="preserve" xmlns:serif="http://www.serif.com/" style="fill-rule:evenodd;clip-rule:evenodd;">
    <g transform="matrix(1,0,0,1,-308.029,-95.9692)">
        <g transform="matrix(1,0,0,1,250,97)">
            <g id="save-money" transform="matrix(1,0,0,1,59,0)">
                <path id="Path" d="M37.113,44.726C36.961,44.693 36.806,44.688 36.652,44.711C35.113,44.531 33.952,43.229 33.949,41.68C33.949,40.938 33.347,40.336 32.605,40.336C31.863,40.336 31.261,40.938 31.261,41.68C31.265,44.267 32.995,46.533 35.489,47.217L35.489,48.561C35.489,49.304 36.091,49.906 36.833,49.906C37.576,49.906 38.178,49.304 38.178,48.561L38.178,47.299C41.056,46.696 43.013,44.015 42.711,41.089C42.407,38.164 39.943,35.941 37.001,35.94C35.316,35.94 33.949,34.573 33.949,32.888C33.949,31.202 35.316,29.836 37.001,29.836C38.687,29.836 40.054,31.202 40.054,32.888C40.054,33.63 40.655,34.232 41.398,34.232C42.14,34.232 42.742,33.63 42.742,32.888C42.738,30.172 40.835,27.829 38.178,27.269L38.178,26.045C38.178,25.303 37.576,24.701 36.833,24.701C36.091,24.701 35.489,25.303 35.489,26.045L35.489,27.351C32.715,28.108 30.93,30.801 31.312,33.651C31.694,36.501 34.126,38.629 37.001,38.628C38.665,38.628 40.021,39.96 40.052,41.622C40.082,43.285 38.775,44.666 37.113,44.726Z" style="fill:#FF3037;fill-rule:nonzero;stroke:#FF3037;stroke-width:0.5px;"/>
                <path id="Shape" d="M17.508,37.387C17.508,48.153 26.235,56.88 37.001,56.88C47.767,56.88 56.494,48.153 56.494,37.387C56.494,26.621 47.767,17.894 37.001,17.894C26.241,17.906 17.521,26.627 17.508,37.387ZM37.001,20.583C46.283,20.583 53.806,28.106 53.806,37.387C53.806,46.668 46.283,54.192 37.001,54.192C27.72,54.192 20.197,46.668 20.197,37.387C20.207,28.111 27.725,20.593 37.001,20.583Z" style="fill:#FF3037;fill-rule:nonzero;stroke:#FF3037;stroke-width:0.5px;"/>
                <path id="Shape1" serif:id="Shape" d="M63.121,60.194L52.591,65.17C51.137,62.466 48.348,60.745 45.279,60.658L35.558,60.391C34.019,60.347 32.508,59.957 31.14,59.25L30.151,58.737C25.086,56.097 19.049,56.104 13.99,58.754L14.052,56.513C14.072,55.771 13.487,55.153 12.745,55.132L2.085,54.839C1.343,54.819 0.725,55.404 0.705,56.146L0.061,79.538C0.041,80.28 0.626,80.899 1.368,80.919L12.027,81.212L12.064,81.212C12.793,81.212 13.389,80.633 13.408,79.905L13.439,78.786L16.209,77.303C17.296,76.718 18.566,76.579 19.754,76.915L36.29,81.556C36.319,81.565 36.348,81.571 36.378,81.578C37.573,81.828 38.791,81.953 40.012,81.953C42.598,81.954 45.154,81.397 47.505,80.318C47.562,80.291 47.618,80.261 47.671,80.226L71.648,64.717C72.246,64.33 72.439,63.546 72.089,62.926C70.309,59.768 66.36,58.565 63.121,60.194ZM2.786,78.268L3.355,57.564L11.327,57.783L10.757,78.488L2.786,78.268ZM46.294,77.917C43.373,79.235 40.112,79.598 36.973,78.957L20.481,74.328C18.625,73.803 16.638,74.02 14.94,74.933L13.525,75.692L13.903,61.925C18.388,58.943 24.139,58.636 28.915,61.125L29.904,61.637C31.633,62.53 33.54,63.022 35.484,63.079L45.206,63.346C47.937,63.425 50.256,65.369 50.81,68.044L36.329,67.644C35.587,67.624 34.969,68.209 34.948,68.951C34.928,69.694 35.513,70.312 36.255,70.332L52.235,70.772L52.273,70.772C53.001,70.771 53.596,70.192 53.616,69.464C53.632,68.88 53.589,68.295 53.486,67.72L64.286,62.617C64.297,62.613 64.307,62.607 64.318,62.602C65.85,61.827 67.702,62.086 68.962,63.253L46.294,77.917Z" style="fill:#FF3037;fill-rule:nonzero;stroke:#FF3037;stroke-width:0.5px;"/>
                <path id="Path1" serif:id="Path" d="M38.346,14.115L38.346,1.344C38.346,0.602 37.744,0 37.001,0C36.259,0 35.657,0.602 35.657,1.344L35.657,14.115C35.657,14.857 36.259,15.459 37.001,15.459C37.744,15.459 38.346,14.857 38.346,14.115Z" style="fill:#FF3037;fill-rule:nonzero;stroke:#FF3037;stroke-width:0.5px;"/>
                <path id="Path2" serif:id="Path" d="M48.428,14.115L48.428,8.066C48.428,7.323 47.826,6.721 47.083,6.721C46.341,6.721 45.739,7.323 45.739,8.066L45.739,14.115C45.739,14.857 46.341,15.459 47.083,15.459C47.826,15.459 48.428,14.857 48.428,14.115Z" style="fill:#FF3037;fill-rule:nonzero;stroke:#FF3037;stroke-width:0.5px;"/>
                <path id="Path3" serif:id="Path" d="M28.264,14.115L28.264,8.066C28.264,7.323 27.662,6.721 26.919,6.721C26.177,6.721 25.575,7.323 25.575,8.066L25.575,14.115C25.575,14.857 26.177,15.459 26.919,15.459C27.662,15.459 28.264,14.857 28.264,14.115Z" style="fill:#FF3037;fill-rule:nonzero;stroke:#FF3037;stroke-width:0.5px;"/>
            </g>
        </g>
    </g>
</svg>
