<?xml version="1.0" encoding="UTF-8"?>
<svg width="67px" height="83px" viewBox="0 0 67 83" version="1.1" xmlns="http://www.w3.org/2000/svg" xmlns:xlink="http://www.w3.org/1999/xlink">
    <!-- Generator: Sketch 61.2 (89653) - https://sketch.com -->
    <title>traffic-cone</title>
    <desc>Created with Sketch.</desc>
    <g id="General" stroke="none" stroke-width="1" fill="none" fill-rule="evenodd">
        <g id="Homepage---1440-⚠️" transform="translate(-767.000000, -1282.000000)" fill="#FF3037" fill-rule="nonzero">
            <g id="Group-30" transform="translate(0.000000, 1185.000000)">
                <g id="Group-31" transform="translate(705.000000, 97.000000)">
                    <g id="traffic-cone" transform="translate(62.000000, 0.000000)">
                        <path d="M52.2033202,62.2426404 L38.1333892,3.79019704 C37.5982846,1.56693911 35.6094073,-4.1580441e-05 33.3226601,-4.1580441e-05 C31.0359129,-4.1580441e-05 29.0470356,1.56693911 28.511931,3.79019704 L14.442,62.2418227 C0.165182266,64.0024039 0.155369458,66.8971823 0.155369458,68.0019409 L0.155369458,76.1956355 C0.155369458,82.8086502 29.9274286,83 33.3226601,83 C36.7178916,83 66.4899507,82.809468 66.4899507,76.1956355 L66.4899507,68.0019409 C66.4899507,66.8963645 66.4809557,64.0024039 52.2033202,62.2426404 L52.2033202,62.2426404 Z M27.7105517,19.3475862 L36.7571429,10.3009951 L37.9436749,15.2302956 L25.7717044,27.4014483 L27.7105517,19.3475862 Z M24.491133,32.7314384 L38.7286995,18.4914187 L40.1450148,24.374197 L22.1753103,42.3430837 L24.491133,32.7314384 Z M20.8931034,47.6738916 L40.9275862,27.6394089 L42.1141182,32.5687094 L18.9534384,55.7285714 L20.8931034,47.6738916 Z M17.6712315,61.0585616 L42.9015961,35.8273793 L44.3170936,41.7093399 L19.6591429,66.3672906 C18.6018128,66.2413596 17.5453005,66.1154286 16.4904236,65.9584236 L17.6712315,61.0585616 Z M45.1021182,44.9712808 L46.2886502,49.9005813 L29.0753498,67.1138818 C27.159399,67.0435567 25.2450837,66.9078128 23.3324039,66.7418128 L45.1021182,44.9712808 Z M47.0736749,53.1625222 L50.1540788,65.9608768 C44.4902106,66.7923159 38.7724516,67.2023087 33.0479015,67.1874778 L47.0736749,53.1625222 Z M31.2946798,4.45665025 C31.5198579,3.51882477 32.3585889,2.85764043 33.323069,2.85764043 C34.287549,2.85764043 35.1262801,3.51882477 35.3514581,4.45665025 L35.9721182,7.03578325 L28.9943941,14.0143251 L31.2946798,4.45665025 Z M13.5441281,67.9316158 C13.7650349,68.2635984 14.1145094,68.4882817 14.5082365,68.5514581 C20.7298416,69.5513357 27.0212217,70.0539242 33.3226601,70.0544532 C39.6240985,70.0539242 45.9154786,69.5513357 52.1370837,68.5514581 C52.5307005,68.4880469 52.8800551,68.2633934 53.1010662,67.9315663 C53.3220773,67.5997392 53.3947294,67.19079 53.3015369,66.8031429 L52.9204729,65.2216453 C60.0241281,66.1824828 62.7937931,67.4131724 63.5003153,68.0084828 C61.9147291,69.4468768 51.9023941,71.9442365 33.325931,71.9442365 C14.749468,71.9442365 4.73386207,69.4476946 3.1515468,68.0084828 C3.85806897,67.4131724 6.62773399,66.1824828 13.7313892,65.2216453 L13.3503251,66.8031429 C13.2549675,67.1898762 13.3252054,67.5988566 13.5441281,67.9316158 L13.5441281,67.9316158 Z M33.3226601,80.137931 C14.146798,80.137931 4.09766502,77.4786601 3.01743842,76.0672512 L3.01743842,71.1256847 C10.5536749,74.6795567 30.5750739,74.8054877 33.3226601,74.8054877 C36.0702463,74.8054877 56.0916453,74.6787389 63.6278818,71.1256847 L63.6278818,76.0672512 C62.5476552,77.4802956 52.4985222,80.137931 33.3226601,80.137931 Z" id="Shape"></path>
                    </g>
                </g>
            </g>
        </g>
    </g>
</svg>