<?xml version="1.0" encoding="UTF-8"?>
<svg width="84px" height="84px" viewBox="0 0 84 84" version="1.1" xmlns="http://www.w3.org/2000/svg" xmlns:xlink="http://www.w3.org/1999/xlink">
    <!-- Generator: Sketch 61.2 (89653) - https://sketch.com -->
    <title>clock</title>
    <desc>Created with Sketch.</desc>
    <g id="General" stroke="none" stroke-width="1" fill="none" fill-rule="evenodd">
        <g id="Homepage---1440-⚠️" transform="translate(-249.000000, -1281.000000)" fill="#FF3037" fill-rule="nonzero" stroke="#FF3037">
            <g id="Group-30" transform="translate(0.000000, 1185.000000)">
                <g id="Group-35" transform="translate(195.000000, 97.000000)">
                    <g id="clock" transform="translate(55.000000, 0.000000)">
                        <path d="M41,0 C18.3926,0 0,18.3926 0,41 C0,63.6074 18.3926,82 41,82 C63.6074,82 82,63.6074 82,41 C82,18.3926 63.6074,0 41,0 Z M41,79.2666667 C19.9000333,79.2666667 2.73333333,62.0999667 2.73333333,41 C2.73333333,19.9000333 19.9000333,2.73333333 41,2.73333333 C62.0999667,2.73333333 79.2666667,19.9000333 79.2666667,41 C79.2666667,62.0999667 62.0999667,79.2666667 41,79.2666667 Z" id="Shape"></path>
                        <path d="M42.3666667,35.5620333 L42.3666667,21.7013 C42.3666667,20.9455333 41.7544,20.3346333 41,20.3346333 C40.2456,20.3346333 39.6333333,20.9455333 39.6333333,21.7013 L39.6333333,35.5620333 C37.7213667,36.0595 36.2248667,37.556 35.7274,39.4679667 L25.9666667,39.4679667 C25.2122667,39.4679667 24.6,40.0788667 24.6,40.8346333 C24.6,41.5904 25.2122667,42.2013 25.9666667,42.2013 L35.7274,42.2013 C36.3383,44.5519667 38.4607333,46.3013 41,46.3013 C44.0148667,46.3013 46.4666667,43.8495 46.4666667,40.8346333 C46.4666667,38.294 44.7173333,36.1729333 42.3666667,35.5620333 Z M41,43.5679667 C39.4925667,43.5679667 38.2666667,42.3420667 38.2666667,40.8346333 C38.2666667,39.3272 39.4925667,38.1013 41,38.1013 C42.5074333,38.1013 43.7333333,39.3272 43.7333333,40.8346333 C43.7333333,42.3420667 42.5074333,43.5679667 41,43.5679667 Z" id="Shape"></path>
                        <path d="M41,13.5013 C41.7544,13.5013 42.3666667,12.8904 42.3666667,12.1346333 L42.3666667,10.7679667 C42.3666667,10.0122 41.7544,9.4013 41,9.4013 C40.2456,9.4013 39.6333333,10.0122 39.6333333,10.7679667 L39.6333333,12.1346333 C39.6333333,12.8904 40.2456,13.5013 41,13.5013 Z" id="Path"></path>
                        <path d="M41,68.1679667 C40.2456,68.1679667 39.6333333,68.7788667 39.6333333,69.5346333 L39.6333333,70.9013 C39.6333333,71.6570667 40.2456,72.2679667 41,72.2679667 C41.7544,72.2679667 42.3666667,71.6570667 42.3666667,70.9013 L42.3666667,69.5346333 C42.3666667,68.7788667 41.7544,68.1679667 41,68.1679667 Z" id="Path"></path>
                        <path d="M71.0666667,39.4679667 L69.7,39.4679667 C68.9456,39.4679667 68.3333333,40.0788667 68.3333333,40.8346333 C68.3333333,41.5904 68.9456,42.2013 69.7,42.2013 L71.0666667,42.2013 C71.8210667,42.2013 72.4333333,41.5904 72.4333333,40.8346333 C72.4333333,40.0788667 71.8210667,39.4679667 71.0666667,39.4679667 Z" id="Path"></path>
                        <path d="M12.3,39.4679667 L10.9333333,39.4679667 C10.1789333,39.4679667 9.56666667,40.0788667 9.56666667,40.8346333 C9.56666667,41.5904 10.1789333,42.2013 10.9333333,42.2013 L12.3,42.2013 C13.0544,42.2013 13.6666667,41.5904 13.6666667,40.8346333 C13.6666667,40.0788667 13.0544,39.4679667 12.3,39.4679667 Z" id="Path"></path>
                        <path d="M61.2936333,18.6071667 L60.3274,19.5734 C59.7930333,20.1077667 59.7930333,20.9715 60.3274,21.5058667 C60.5939,21.7723667 60.9437667,21.9063 61.2936333,21.9063 C61.6435,21.9063 61.9933667,21.7723667 62.2598667,21.5058667 L63.2261,20.5396333 C63.7604667,20.0052667 63.7604667,19.1415333 63.2261,18.6071667 C62.6917333,18.0728 61.828,18.0741667 61.2936333,18.6071667 Z" id="Path"></path>
                        <path d="M19.7401333,60.1620333 L18.7739,61.1282667 C18.2395333,61.6626333 18.2395333,62.5263667 18.7739,63.0607333 C19.0404,63.3272333 19.3902667,63.4611667 19.7401333,63.4611667 C20.09,63.4611667 20.4398667,63.3272333 20.7063667,63.0607333 L21.6726,62.0945 C22.2069667,61.5601333 22.2069667,60.6964 21.6726,60.1620333 C21.1382333,59.6276667 20.2731333,59.6290333 19.7401333,60.1620333 Z" id="Path"></path>
                        <path d="M62.2598667,60.1620333 C61.7255,59.6276667 60.8617667,59.6276667 60.3274,60.1620333 C59.7930333,60.6964 59.7930333,61.5601333 60.3274,62.0945 L61.2936333,63.0607333 C61.5601333,63.3272333 61.91,63.4611667 62.2598667,63.4611667 C62.6097333,63.4611667 62.9596,63.3272333 63.2261,63.0607333 C63.7604667,62.5263667 63.7604667,61.6626333 63.2261,61.1282667 L62.2598667,60.1620333 Z" id="Path"></path>
                        <path d="M20.7063667,18.6071667 C20.172,18.0728 19.3082667,18.0728 18.7739,18.6071667 C18.2395333,19.1415333 18.2395333,20.0052667 18.7739,20.5396333 L19.7401333,21.5058667 C20.0066333,21.7723667 20.3565,21.9063 20.7063667,21.9063 C21.0562333,21.9063 21.4061,21.7723667 21.6726,21.5058667 C22.2069667,20.9715 22.2069667,20.1077667 21.6726,19.5734 L20.7063667,18.6071667 Z" id="Path"></path>
                    </g>
                </g>
            </g>
        </g>
    </g>
</svg>