<?xml version="1.0" encoding="UTF-8"?>
<svg width="83px" height="83px" viewBox="0 0 83 83" version="1.1" xmlns="http://www.w3.org/2000/svg" xmlns:xlink="http://www.w3.org/1999/xlink">
    <!-- Generator: Sketch 61.2 (89653) - https://sketch.com -->
    <title>pipe</title>
    <desc>Created with Sketch.</desc>
    <g id="General" stroke="none" stroke-width="1" fill="none" fill-rule="evenodd">
        <g id="Homepage---1440-⚠️" transform="translate(-504.000000, -1509.000000)" fill="#FF3037" fill-rule="nonzero">
            <g id="Group-30" transform="translate(0.000000, 1185.000000)">
                <g id="Group-37" transform="translate(450.000000, 324.000000)">
                    <g id="pipe" transform="translate(54.000000, 0.000000)">
                        <path d="M80.3016895,14.0785508 C81.7404102,14.0785508 82.9108398,12.9081211 82.9108398,11.4694004 L82.9108398,3.09709961 C82.9108398,1.38927734 81.5214004,0 79.8137402,0 L53.4892852,0 C51.781625,0 50.3923477,1.38927734 50.3923477,3.09709961 L50.3923477,11.4694004 C50.3923477,13.6664687 52.3760801,14.0785508 54.1127578,14.0785508 L54.1127578,28.0219023 C54.1127578,28.4505195 53.7640605,28.7990547 53.3356055,28.7990547 L34.1241855,28.7990547 L34.1241855,28.1757441 C34.1241855,26.376168 32.5757168,25.0087754 30.8131016,25.0788066 L30.8131016,23.9422578 C30.8131016,21.9541484 29.1955742,20.3366211 27.2074648,20.3366211 L25.5445469,20.3366211 L25.5445469,18.0670898 L29.9215,18.0670898 L29.9215,15.6354492 L25.5445469,15.6354492 L25.5445469,14.2575195 C25.5445469,10.1884121 19.2222813,10.1803066 19.2222813,14.2575195 L19.2222813,15.6354492 L14.8453281,15.6354492 L14.8453281,18.0670898 L19.2222813,18.0670898 L19.2222813,20.3366211 L17.5593633,20.3366211 C15.5712539,20.3366211 13.9537266,21.9541484 13.9537266,23.9422578 L13.9537266,25.0788066 C12.1925703,25.0087754 10.6426426,26.3740605 10.6426426,28.1757441 L10.6426426,28.9775371 L1.30514258,28.9775371 C0.633685547,28.9775371 0.0893222656,29.5219004 0.0893222656,30.1933574 L0.0893222656,52.8393887 C0.0893222656,53.5108457 0.633685547,54.055209 1.30514258,54.055209 L10.6428047,54.055209 C10.5959551,55.8940156 11.7410957,57.5971367 13.7399043,57.5971367 L31.027248,57.5971367 C33.1520156,57.5971367 34.1762227,55.7701641 34.1243477,53.8767266 L53.3356055,53.8767266 C53.7642227,53.8767266 54.1127578,54.2254238 54.1127578,54.6538789 L54.1127578,68.4344727 C52.2193203,68.3825977 50.3923477,69.4068047 50.3923477,71.5314102 L50.3923477,79.9027383 L52.8239883,79.9027383 L52.8239883,71.5314102 C52.8239883,71.1645566 53.1224316,70.8661133 53.4892852,70.8661133 L60.0145117,70.8661133 L60.0145117,81.7841797 C60.0145117,82.4556367 60.558875,83 61.230332,83 L79.8137402,83 C81.5214004,83 82.9108398,81.6107227 82.9108398,79.9030625 L82.9108398,71.5317344 C82.9108398,69.4069668 81.0837051,68.3829219 79.1902676,68.4347969 L79.1902676,14.0785508 L80.3016895,14.0785508 Z M21.6539219,14.2575195 C21.6539219,13.3450059 23.1129063,13.3031816 23.1129063,14.2575195 L23.1129063,15.6354492 L21.6539219,15.6354492 L21.6539219,14.2575195 Z M21.6539219,18.0670898 L23.1129063,18.0670898 L23.1129063,20.3366211 L21.6539219,20.3366211 L21.6539219,18.0670898 Z M16.3853672,23.9420957 C16.3853672,23.294793 16.9120605,22.7680996 17.5593633,22.7680996 L20.4381016,22.7680996 L24.3287266,22.7680996 L27.2074648,22.7680996 C27.8547676,22.7680996 28.3814609,23.294793 28.3814609,23.9420957 L28.3814609,25.0376309 L16.3853672,25.0376309 L16.3853672,23.9420957 Z M62.4461523,70.8662754 L70.856873,70.8662754 L70.856873,80.5683594 L62.4461523,80.5683594 L62.4461523,70.8662754 Z M80.4790371,71.5315723 L80.4790371,79.9029004 C80.4790371,80.2697539 80.1805938,80.5681973 79.8137402,80.5681973 L73.2885137,80.5681973 L73.2885137,70.8661133 L79.8137402,70.8661133 C80.1805938,70.8662754 80.4790371,71.1647187 80.4790371,71.5315723 Z M80.4790371,11.4694004 C80.4790371,11.5673145 80.3994414,11.6469102 80.3015273,11.6469102 L77.9744473,11.6469102 L73.2885137,11.6469102 L73.2885137,2.43164062 L79.8137402,2.43164062 C80.1805937,2.43164062 80.4790371,2.73008398 80.4790371,3.09709961 L80.4790371,11.4694004 Z M62.4461523,11.6469102 L62.4461523,2.43164062 L70.856873,2.43164062 L70.856873,11.6469102 L62.4461523,11.6469102 Z M52.8238262,11.4694004 L52.8238262,3.09709961 C52.8238262,2.73008398 53.1222695,2.43164062 53.489123,2.43164062 L60.0143496,2.43164062 L60.0143496,11.6469102 L55.3282539,11.6469102 L53.0011738,11.6469102 C52.9034219,11.6469102 52.8238262,11.5671523 52.8238262,11.4694004 Z M2.52096289,51.6235684 L2.52096289,31.4091777 L10.6428047,31.4091777 L10.6428047,51.6235684 L2.52096289,51.6235684 Z M76.758627,68.3537422 L56.5442363,68.3537422 L56.5442363,54.654041 C56.5442363,52.8846172 55.1047051,51.445248 53.3354434,51.445248 L34.2050781,51.445248 L34.2050781,41.0866211 L31.6925449,41.0866211 L31.6925449,54.5001992 C31.6925449,54.8670527 31.3941016,55.1654961 31.0270859,55.1654961 L13.7397422,55.1654961 C13.3727266,55.1654961 13.0742832,54.8670527 13.0742832,54.5001992 L13.0742832,28.1757441 C13.0742832,27.8088906 13.3727266,27.5104473 13.7397422,27.5104473 L31.0270859,27.5104473 C31.3941016,27.5104473 31.6925449,27.8088906 31.6925449,28.1757441 L31.6925449,33.6295898 L34.2050781,33.6295898 L34.2050781,31.2306953 L53.3354434,31.2306953 C55.1048672,31.2306953 56.5442363,29.7911641 56.5442363,28.0219023 L56.5442363,14.0785508 L76.758627,14.0785508 L76.758627,68.3537422 Z" id="Shape"></path>
                    </g>
                </g>
            </g>
        </g>
    </g>
</svg>