<?xml version="1.0" encoding="UTF-8"?>
<svg width="74px" height="84px" viewBox="0 0 74 84" version="1.1" xmlns="http://www.w3.org/2000/svg" xmlns:xlink="http://www.w3.org/1999/xlink">
    <!-- Generator: Sketch 64 (93537) - https://sketch.com -->
    <title>Group</title>
    <desc>Created with Sketch.</desc>
    <defs>
        <path d="M20.001,0.894 C30.767,0.894 39.494,9.621 39.494,20.387 C39.494,31.153 30.767,39.88 20.001,39.88 C9.235,39.88 0.508,31.153 0.508,20.387 C0.521,9.627 9.241,0.906 20.001,0.894 Z M20.001,3.583 C10.725,3.593 3.207,11.111 3.197,20.387 C3.197,29.669 10.72,37.192 20.001,37.192 C29.283,37.192 36.806,29.669 36.806,20.387 C36.806,11.106 29.283,3.583 20.001,3.583 Z" id="path-1"></path>
        <path d="M2.085,0.839 L12.745,1.133 C13.487,1.153 14.072,1.771 14.052,2.514 L14.052,2.514 L13.99,4.754 C19.049,2.104 25.086,2.097 30.151,4.737 L30.151,4.737 L31.14,5.25 C32.508,5.957 34.019,6.347 35.558,6.391 L35.558,6.391 L45.279,6.658 C48.348,6.745 51.137,8.466 52.591,11.17 L52.591,11.17 L63.121,6.194 C66.36,4.565 70.309,5.768 72.089,8.926 C72.439,9.546 72.246,10.33 71.648,10.717 L71.648,10.717 L47.671,26.226 C47.618,26.261 47.562,26.291 47.505,26.318 C45.154,27.397 42.598,27.954 40.012,27.9530013 C38.791,27.9530013 37.573,27.828 36.378,27.578 C36.348,27.571 36.319,27.565 36.29,27.556 L36.29,27.556 L19.754,22.915 C18.566,22.579 17.296,22.718 16.209,23.303 L16.209,23.303 L13.439,24.786 L13.408,25.905 C13.389,26.633 12.793,27.212 12.064,27.212 L12.064,27.212 L12.027,27.212 L1.368,26.919 C0.625,26.899 0.041,26.28 0.0595492435,25.538 L0.0595492435,25.538 L0.705,2.146 C0.725,1.404 1.343,0.819 2.085,0.839 L2.085,0.839 Z M28.915,7.125 C24.139,4.636 18.388,4.943 13.903,7.925 L13.903,7.925 L13.525,21.692 L14.94,20.933 C16.638,20.02 18.625,19.803 20.481,20.328 L20.481,20.328 L36.973,24.957 C40.112,25.598 43.373,25.235 46.294,23.917 L46.294,23.917 L68.962,9.253 C67.702,8.086 65.85,7.827 64.318,8.602 C64.307,8.607 64.297,8.613 64.286,8.617 L64.286,8.617 L53.486,13.721 C53.589,14.295 53.632,14.88 53.616,15.464 C53.596,16.192 53.001,16.771 52.273,16.772 L52.273,16.772 L52.235,16.772 L36.255,16.332 C35.513,16.312 34.928,15.694 34.948,14.951 C34.969,14.21 35.587,13.624 36.329,13.644 L36.329,13.644 L50.81,14.044 C50.256,11.369 47.937,9.424 45.206,9.346 L45.206,9.346 L35.484,9.079 C33.54,9.022 31.633,8.53 29.904,7.637 L29.904,7.637 L28.915,7.125 Z M3.355,3.564 L2.786,24.268 L10.757,24.488 L11.327,3.783 L3.355,3.564 Z" id="path-3"></path>
        <path d="M2.001,0 C2.744,0 3.346,0.602 3.346,1.344 L3.346,1.344 L3.346,14.115 C3.346,14.857 2.744,15.459 2.001,15.459 C1.259,15.459 0.657,14.857 0.657,14.115 L0.657,14.115 L0.657,1.344 C0.657,0.602 1.259,0 2.001,0 Z" id="path-5"></path>
        <path d="M2.083,0.721 C2.826,0.721 3.428,1.323 3.428,2.066 L3.428,2.066 L3.428,8.115 C3.428,8.857 2.826,9.459 2.083,9.459 C1.341,9.459 0.739,8.857 0.739,8.115 L0.739,8.115 L0.739,2.066 C0.739,1.323 1.341,0.721 2.083,0.721 Z" id="path-7"></path>
        <path d="M1.919,0.721 C2.662,0.721 3.264,1.323 3.264,2.066 L3.264,2.066 L3.264,8.115 C3.264,8.857 2.662,9.459 1.919,9.459 C1.177,9.459 0.575,8.857 0.575,8.115 L0.575,8.115 L0.575,2.066 C0.575,1.323 1.177,0.721 1.919,0.721 Z" id="path-9"></path>
    </defs>
    <g id="Page-1" stroke="none" stroke-width="1" fill="none" fill-rule="evenodd">
        <g id="infografika_EPS" transform="translate(-308.000000, -96.000000)">
            <g id="Group" transform="translate(304.000000, 96.000000)">
                <g id="Group-90" transform="translate(22.000000, 18.000000)">
                    <mask id="mask-2" fill="white">
                        <use xlink:href="#path-1"></use>
                    </mask>
                    <g id="Clip-89"></g>
                    <polygon id="Fill-88" fill="#FF3037" mask="url(#mask-2)" points="0.4 39.9 39.52 39.9 39.52 0.78 0.4 0.78"></polygon>
                </g>
                <path d="M22.508,38.387 C22.508,49.153 31.235,57.88 42.001,57.88 C52.767,57.88 61.494,49.153 61.494,38.387 C61.494,27.621 52.767,18.894 42.001,18.894 C31.241,18.906 22.521,27.627 22.508,38.387 Z M42.001,21.583 C51.283,21.583 58.806,29.106 58.806,38.387 C58.806,47.668 51.283,55.192 42.001,55.192 C32.72,55.192 25.197,47.668 25.197,38.387 C25.207,29.111 32.725,21.593 42.001,21.583 Z" id="Stroke-91" stroke="#FF3037" stroke-width="0.5"></path>
                <g id="Group-94" transform="translate(5.000000, 55.000000)">
                    <mask id="mask-4" fill="white">
                        <use xlink:href="#path-3"></use>
                    </mask>
                    <g id="Clip-93"></g>
                    <polygon id="Fill-92" fill="#FF3037" mask="url(#mask-4)" points="0 27.98 72.36 27.98 72.36 0.74 0 0.74"></polygon>
                </g>
                <path d="M68.121,61.194 L57.591,66.17 C56.137,63.466 53.348,61.745 50.279,61.658 L40.558,61.391 C39.019,61.347 37.508,60.957 36.14,60.25 L35.151,59.737 C30.086,57.097 24.049,57.104 18.99,59.754 L19.052,57.514 C19.072,56.771 18.487,56.153 17.745,56.133 L7.085,55.839 C6.343,55.819 5.725,56.404 5.705,57.146 L5.06050127,80.538 C5.041,81.28 5.625,81.899 6.368,81.919 L17.027,82.212 L17.064,82.212 C17.793,82.212 18.389,81.633 18.408,80.905 L18.439,79.786 L21.209,78.303 C22.296,77.718 23.566,77.579 24.754,77.915 L41.29,82.556 C41.319,82.565 41.348,82.571 41.378,82.578 C42.573,82.828 43.791,82.9530013 45.012,82.9530013 C47.598,82.954 50.154,82.397 52.505,81.318 C52.562,81.291 52.618,81.261 52.671,81.226 L76.648,65.717 C77.246,65.33 77.439,64.546 77.089,63.926 C75.309,60.768 71.36,59.565 68.121,61.194 Z M7.786,79.268 L8.355,58.564 L16.327,58.783 L15.757,79.488 L7.786,79.268 Z M51.294,78.917 C48.373,80.235 45.112,80.598 41.973,79.957 L25.481,75.328 C23.625,74.803 21.638,75.02 19.94,75.933 L18.525,76.692 L18.903,62.925 C23.388,59.943 29.139,59.636 33.915,62.125 L34.904,62.637 C36.633,63.53 38.54,64.022 40.484,64.079 L50.206,64.346 C52.937,64.425 55.256,66.369 55.81,69.044 L41.329,68.644 C40.587,68.624 39.969,69.21 39.948,69.951 C39.928,70.694 40.513,71.312 41.255,71.332 L57.235,71.772 L57.273,71.772 C58.001,71.771 58.596,71.192 58.616,70.465 C58.632,69.88 58.589,69.296 58.486,68.721 L69.286,63.617 C69.297,63.613 69.307,63.607 69.318,63.602 C70.85,62.827 72.702,63.086 73.962,64.253 L51.294,78.917 Z" id="Stroke-95" stroke="#FF3037" stroke-width="0.5"></path>
                <g id="Group-98" transform="translate(40.000000, 1.000000)">
                    <mask id="mask-6" fill="white">
                        <use xlink:href="#path-5"></use>
                    </mask>
                    <g id="Clip-97"></g>
                    <polygon id="Fill-96" fill="#FF3037" mask="url(#mask-6)" points="0.64 15.5 3.4 15.5 3.4 -0.1 0.64 -0.1"></polygon>
                </g>
                <path d="M43.346,15.115 L43.346,2.344 C43.346,1.602 42.744,1 42.001,1 C41.259,1 40.657,1.602 40.657,2.344 L40.657,15.115 C40.657,15.857 41.259,16.459 42.001,16.459 C42.744,16.459 43.346,15.857 43.346,15.115 Z" id="Stroke-99" stroke="#FF3037" stroke-width="0.5"></path>
                <g id="Group-102" transform="translate(50.000000, 7.000000)">
                    <mask id="mask-8" fill="white">
                        <use xlink:href="#path-7"></use>
                    </mask>
                    <g id="Clip-101"></g>
                    <polygon id="Fill-100" fill="#FF3037" mask="url(#mask-8)" points="0.72 9.5 3.48 9.5 3.48 0.62 0.72 0.62"></polygon>
                </g>
                <path d="M53.428,15.115 L53.428,9.066 C53.428,8.323 52.826,7.721 52.083,7.721 C51.341,7.721 50.739,8.323 50.739,9.066 L50.739,15.115 C50.739,15.857 51.341,16.459 52.083,16.459 C52.826,16.459 53.428,15.857 53.428,15.115 Z" id="Stroke-103" stroke="#FF3037" stroke-width="0.5"></path>
                <g id="Group-106" transform="translate(30.000000, 7.000000)">
                    <mask id="mask-10" fill="white">
                        <use xlink:href="#path-9"></use>
                    </mask>
                    <g id="Clip-105"></g>
                    <polygon id="Fill-104" fill="#FF3037" mask="url(#mask-10)" points="0.56 9.5 3.32 9.5 3.32 0.62 0.56 0.62"></polygon>
                </g>
                <path d="M33.264,15.115 L33.264,9.066 C33.264,8.323 32.662,7.721 31.919,7.721 C31.177,7.721 30.575,8.323 30.575,9.066 L30.575,15.115 C30.575,15.857 31.177,16.459 31.919,16.459 C32.662,16.459 33.264,15.857 33.264,15.115 Z" id="Stroke-107" stroke="#FF3037" stroke-width="0.5"></path>
                <text id="Kč" font-family="Cabin-Bold, Cabin" font-size="21" font-weight="bold" letter-spacing="-1.05" fill="#FF3037">
                    <tspan x="31" y="46">Kč</tspan>
                </text>
            </g>
        </g>
    </g>
</svg>