<?xml version="1.0" encoding="UTF-8"?>
<svg width="24px" height="24px" viewBox="0 0 24 24" version="1.1" xmlns="http://www.w3.org/2000/svg" xmlns:xlink="http://www.w3.org/1999/xlink">
    <!-- Generator: Sketch 61.2 (89653) - https://sketch.com -->
    <title>Group 13</title>
    <desc>Created with Sketch.</desc>
    <g id="General" stroke="none" stroke-width="1" fill="none" fill-rule="evenodd">
        <g id="Homepage---1440-⚠️" transform="translate(-296.000000, -5961.000000)" fill="#FFFFFF">
            <g id="Group-10" transform="translate(0.000000, 5685.000000)">
                <g id="Group-5" transform="translate(165.000000, 276.000000)">
                    <g id="Group-3" transform="translate(131.000000, 0.000000)">
                        <g id="Group-13" transform="translate(-0.000000, 0.204953)">
                            <path d="M11.5398795,0.870289197 C5.66750455,0.870289197 0.876459091,5.62785374 0.876459091,11.4588898 C0.876459091,17.2896798 5.66750455,22.0472443 11.5398795,22.0472443 C17.4120068,22.0472443 22.2033,17.2896798 22.2033,11.4588898 C22.2033,5.62785374 17.4120068,0.870289197 11.5398795,0.870289197 M11.5398795,22.9175335 C5.17105909,22.9175335 2.59348099e-13,17.7828765 2.59348099e-13,11.4588898 C2.59348099e-13,5.13465706 5.17105909,3.28626015e-13 11.5398795,3.28626015e-13 C17.9087,3.28626015e-13 23.0797591,5.13465706 23.0797591,11.4588898 C23.0797591,17.7828765 17.9087,22.9175335 11.5398795,22.9175335" id="Fill-15"></path>
                            <path d="M13.9999009,10.6111852 L12.1671631,10.6111852 L12.1671631,9.21469717 C12.1671631,8.78635268 12.5916509,8.68717699 12.7897602,8.68717699 L13.9736672,8.68717699 L13.9736672,6.80260289 L12.6167538,6.79504665 C10.7656976,6.79504665 10.3432452,8.20027162 10.3432452,9.1011174 L10.3432452,10.6111852 L8.99990091,10.6111852 L8.99990091,12.5531396 L10.3432452,12.5531396 L10.3432452,17.7950466 L12.1671631,17.7950466 L12.1671631,12.5531396 L13.7169844,12.5531396 L13.9999009,10.6111852 Z" id="Fill-18"></path>
                        </g>
                    </g>
                </g>
            </g>
        </g>
    </g>
</svg>