<?xml version="1.0" encoding="UTF-8"?>
<svg width="24px" height="24px" viewBox="0 0 24 24" version="1.1" xmlns="http://www.w3.org/2000/svg" xmlns:xlink="http://www.w3.org/1999/xlink">
    <title>Group 14</title>
    <defs>
        <polygon id="path-1" points="0.0555156818 0.204953352 23.1352748 0.204953352 23.1352748 23.1224377 0.0555156818 23.1224377"></polygon>
    </defs>
    <g id="General" stroke="none" stroke-width="1" fill="none" fill-rule="evenodd">
        <g id="Homepage-wide--1920" transform="translate(-604.000000, -5820.000000)">
            <g id="Group-8" transform="translate(0.000000, 1800.000000)">
                <g id="Group-10" transform="translate(0.000000, 3744.000000)">
                    <g id="Group-5" transform="translate(405.000000, 276.000000)">
                        <g id="Group-14" transform="translate(199.000000, 0.000000)">
                            <mask id="mask-2" fill="white">
                                <use xlink:href="#path-1"></use>
                            </mask>
                            <g id="Clip-13"></g>
                            <path d="M11.5953952,1.07524255 C5.72326795,1.07524255 0.931974773,5.83280709 0.931974773,11.6638431 C0.931974773,17.4946331 5.72326795,22.2521977 11.5953952,22.2521977 C17.4677702,22.2521977 22.2588157,17.4946331 22.2588157,11.6638431 C22.2588157,5.83280709 17.4677702,1.07524255 11.5953952,1.07524255 M11.5953952,23.1224869 C5.22657477,23.1224869 0.0555156818,17.9878298 0.0555156818,11.6638431 C0.0555156818,5.33961042 5.22657477,0.204953352 11.5953952,0.204953352 C17.9642157,0.204953352 23.1352748,5.33961042 23.1352748,11.6638431 C23.1352748,17.9878298 17.9642157,23.1224869 11.5953952,23.1224869" id="Fill-12" fill="#FFFFFF" mask="url(#mask-2)"></path>
                            <polygon id="Path" fill="#FFFFFF" mask="url(#mask-2)" points="8 18 5 18 5 9 8 9"></polygon>
                            <path d="M6.5,7 C5.672,7 5,6.32823129 5,5.5 C5,4.67176871 5.672,4 6.5,4 C7.328,4 8,4.67176871 8,5.5 C8,6.32823129 7.32885714,7 6.5,7 Z" id="Path" fill="#FFFFFF" mask="url(#mask-2)"></path>
                            <path d="M18,18 L15.6,18 L15.6,13.4150346 C15.6,10.6594736 12.4,10.8681043 12.4,13.4150346 L12.4,18 L10,18 L10,9.00024629 L12.4,9.00024629 L12.4,10.4442977 C13.5168,8.3285374 18,8.17226895 18,12.4700604 L18,18 Z" id="Path" fill="#FFFFFF" mask="url(#mask-2)"></path>
                        </g>
                    </g>
                </g>
            </g>
        </g>
    </g>
</svg>