<?xml version="1.0" encoding="UTF-8"?>
<svg width="82px" height="82px" viewBox="0 0 82 82" version="1.1" xmlns="http://www.w3.org/2000/svg" xmlns:xlink="http://www.w3.org/1999/xlink">
    <!-- Generator: Sketch 63.1 (92452) - https://sketch.com -->
    <title>qualitative-research</title>
    <desc>Created with Sketch.</desc>
    <g id="General" stroke="none" stroke-width="1" fill="none" fill-rule="evenodd">
        <g id="01---O-nás---1440-⚠️" transform="translate(-679.000000, -2676.000000)" fill="#FF3037" fill-rule="nonzero">
            <g id="Group-30" transform="translate(363.000000, 2676.000000)">
                <g id="Group-25">
                    <g id="Group-16" transform="translate(262.000000, 0.000000)">
                        <g id="qualitative-research" transform="translate(54.000000, 0.000000)">
                            <path d="M33.0645161,31.7419355 C25.0430645,31.7419355 18.516129,38.268871 18.516129,46.2903226 C18.516129,54.3117742 25.0430645,60.8387097 33.0645161,60.8387097 C41.0859677,60.8387097 47.6129032,54.3117742 47.6129032,46.2903226 C47.6129032,38.268871 41.0859677,31.7419355 33.0645161,31.7419355 Z M33.0645161,58.1935484 C26.501871,58.1935484 21.1612903,52.8542903 21.1612903,46.2903226 C21.1612903,39.7263548 26.501871,34.3870968 33.0645161,34.3870968 C39.6271613,34.3870968 44.9677419,39.7263548 44.9677419,46.2903226 C44.9677419,52.8542903 39.6271613,58.1935484 33.0645161,58.1935484 Z" id="Shape"></path>
                            <path d="M60.8387097,50.2580645 L60.8387097,56.6963871 L70.4975161,50.2580645 L72.7419355,50.2580645 C76.3882903,50.2580645 79.3548387,47.2915161 79.3548387,43.6451613 L79.3548387,27.7741935 C79.3548387,24.1278387 76.3882903,21.1612903 72.7419355,21.1612903 L65.666129,21.1612903 C64.5736774,18.0836452 61.6415161,15.8709677 58.1935484,15.8709677 C54.7455806,15.8709677 51.8134194,18.0836452 50.7209677,21.1612903 L43.6451613,21.1612903 C43.1928387,21.1612903 42.7497742,21.2075806 42.3225806,21.294871 L42.3225806,11.9032258 C42.3225806,8.25687097 39.3560323,5.29032258 35.7096774,5.29032258 L28.633871,5.29032258 C27.5414194,2.21267742 24.6092581,0 21.1612903,0 C17.7133226,0 14.7811613,2.21267742 13.6887097,5.29032258 L6.61290323,5.29032258 C2.96654839,5.29032258 0,8.25687097 0,11.9032258 L0,27.7741935 C0,31.4205484 2.96654839,34.3870968 6.61290323,34.3870968 L17.2305806,34.3870968 C14.7282581,37.7067742 13.2258065,41.8213226 13.2258065,46.2903226 C13.2258065,50.2686452 14.4134839,53.9692258 16.4383548,57.0786129 L14.5483871,58.9685806 L13.2258065,57.646 L1.75770968,69.1154194 C0.624258065,70.2475484 0,71.7552903 0,73.3569355 C0,76.6647097 2.69145161,79.3548387 5.99922581,79.3548387 C7.60219355,79.3548387 9.1086129,78.7305806 10.2407419,77.5984516 L21.7088387,66.1290323 L20.3862581,64.8064516 L22.2762258,62.9164839 C25.3856129,64.9413548 29.0861935,66.1290323 33.0645161,66.1290323 C42.6452903,66.1290323 50.660129,59.3031935 52.5038065,50.2580645 L60.8387097,50.2580645 Z M66.1290323,23.8064516 L72.7419355,23.8064516 C74.9294839,23.8064516 76.7096774,25.5866452 76.7096774,27.7741935 L76.7096774,43.6451613 C76.7096774,45.8327097 74.9294839,47.6129032 72.7419355,47.6129032 L69.6960323,47.6129032 L63.483871,51.7552258 L63.483871,47.6129032 L52.8357742,47.6129032 C52.864871,47.1738065 52.9032258,46.7373548 52.9032258,46.2903226 C52.9032258,45.8432903 52.864871,45.4068387 52.8357742,44.9677419 L71.4193548,44.9677419 L71.4193548,42.3225806 C71.4193548,36.7584839 67.9594839,31.9945484 63.0818065,30.0450645 C64.9334194,28.5902258 66.1290323,26.337871 66.1290323,23.8064516 Z M62.0607742,42.3225806 L61.2526774,32.1969032 C65.5986774,33.512871 68.7741935,37.5520323 68.7741935,42.3225806 L62.0607742,42.3225806 Z M58.5625484,31.7604516 L59.4063548,42.3225806 L56.9807419,42.3225806 L57.8232258,31.7644194 C57.9475484,31.7604516 58.0692258,31.7419355 58.1935484,31.7419355 C58.317871,31.7419355 58.4395484,31.7564839 58.5625484,31.7604516 Z M54.3263226,42.3225806 L52.5024839,42.3225806 C52.0237097,39.9710323 51.1098065,37.7808387 49.8771613,35.8101935 C51.2328065,34.0802581 53.0685484,32.8370323 55.1330968,32.2127742 L54.3263226,42.3225806 Z M58.1935484,18.516129 C61.1111613,18.516129 63.483871,20.8888387 63.483871,23.8064516 C63.483871,26.7240645 61.1111613,29.0967742 58.1935484,29.0967742 C55.2759355,29.0967742 52.9032258,26.7240645 52.9032258,23.8064516 C52.9032258,20.8888387 55.2759355,18.516129 58.1935484,18.516129 Z M50.2580645,23.8064516 C50.2580645,26.3365484 51.4523548,28.5875806 53.3013226,30.0424194 C51.3862258,30.8055484 49.6602581,32.0064516 48.2755161,33.5776774 C46.0218387,30.8862258 43.0632258,28.8150645 39.6932903,27.6154839 C39.7792581,25.502 41.5118387,23.8064516 43.6451613,23.8064516 L50.2580645,23.8064516 Z M29.0967742,7.93548387 L35.7096774,7.93548387 C37.8972258,7.93548387 39.6774194,9.71567742 39.6774194,11.9032258 L39.6774194,22.5182581 C38.309871,23.5538387 37.3695161,25.0959677 37.1235161,26.8735161 C36.2334194,26.6870323 35.316871,26.5812258 34.3870968,26.5203871 L34.3870968,26.4516129 C34.3870968,20.8875161 30.9272258,16.1235806 26.0495484,14.1740968 C27.9011613,12.7192581 29.0967742,10.4669032 29.0967742,7.93548387 L29.0967742,7.93548387 Z M10.5806452,26.4516129 C10.5806452,21.6810645 13.7561613,17.6419032 18.1034839,16.3259355 L17.2940645,26.4516129 L10.5806452,26.4516129 Z M20.7922903,15.8894839 C20.9152903,15.8855161 21.0369677,15.8709677 21.1612903,15.8709677 C21.2856129,15.8709677 21.4072903,15.8855161 21.5302903,15.8894839 L22.3740968,26.4516129 L19.9484839,26.4516129 L20.7922903,15.8894839 Z M24.2190968,16.3259355 C28.5664194,17.6419032 31.7419355,21.6810645 31.7419355,26.4516129 L25.0285161,26.4516129 L24.2190968,16.3259355 Z M21.1612903,2.64516129 C24.0789032,2.64516129 26.4516129,5.01787097 26.4516129,7.93548387 C26.4516129,10.8530968 24.0789032,13.2258065 21.1612903,13.2258065 C18.2436774,13.2258065 15.8709677,10.8530968 15.8709677,7.93548387 C15.8709677,5.01787097 18.2436774,2.64516129 21.1612903,2.64516129 Z M2.64516129,27.7741935 L2.64516129,11.9032258 C2.64516129,9.71567742 4.42535484,7.93548387 6.61290323,7.93548387 L13.2258065,7.93548387 C13.2258065,10.4669032 14.4214194,12.7192581 16.2730323,14.1740968 C11.3953548,16.1235806 7.93548387,20.8875161 7.93548387,26.4516129 L7.93548387,29.0967742 L23.2099677,29.0967742 C21.9138387,29.8427097 20.7142581,30.7328065 19.623129,31.7419355 L6.61290323,31.7419355 C4.42535484,31.7419355 2.64516129,29.9617419 2.64516129,27.7741935 Z M8.3706129,75.7283226 C7.73709677,76.3605161 6.8946129,76.7096774 5.99922581,76.7096774 C4.15025806,76.7096774 2.64516129,75.2045806 2.64516129,73.3569355 C2.64516129,72.4615484 2.99432258,71.6203871 3.62783871,70.9855484 L13.2258065,61.3862581 L17.9685806,66.1290323 L8.3706129,75.7283226 Z M18.516129,62.9363226 L16.4185161,60.8387097 L18.0439677,59.2132581 C18.6907097,59.9631613 19.3916774,60.664129 20.1415806,61.310871 L18.516129,62.9363226 Z M33.0645161,63.483871 C23.5842581,63.483871 15.8709677,55.7705806 15.8709677,46.2903226 C15.8709677,36.8100645 23.5842581,29.0967742 33.0645161,29.0967742 C42.5447742,29.0967742 50.2580645,36.8100645 50.2580645,46.2903226 C50.2580645,55.7705806 42.5447742,63.483871 33.0645161,63.483871 Z" id="Shape"></path>
                            <path d="M78.0322581,58.1935484 L54.2258065,58.1935484 C52.0382581,58.1935484 50.2580645,59.9737419 50.2580645,62.1612903 L50.2580645,78.0322581 C50.2580645,80.2198065 52.0382581,82 54.2258065,82 L78.0322581,82 C80.2198065,82 82,80.2198065 82,78.0322581 L82,62.1612903 C82,59.9737419 80.2198065,58.1935484 78.0322581,58.1935484 Z M79.3548387,78.0322581 C79.3548387,78.7623226 78.761,79.3548387 78.0322581,79.3548387 L54.2258065,79.3548387 C53.4970645,79.3548387 52.9032258,78.7623226 52.9032258,78.0322581 L52.9032258,62.1612903 C52.9032258,61.4312258 53.4970645,60.8387097 54.2258065,60.8387097 L78.0322581,60.8387097 C78.761,60.8387097 79.3548387,61.4312258 79.3548387,62.1612903 L79.3548387,78.0322581 Z" id="Shape"></path>
                            <polygon id="Path" points="74.0645161 66.1290323 71.4193548 66.1290323 71.4193548 74.0645161 68.7741935 74.0645161 68.7741935 68.7741935 66.1290323 68.7741935 66.1290323 74.0645161 63.483871 74.0645161 63.483871 71.4193548 60.8387097 71.4193548 60.8387097 74.0645161 58.1935484 74.0645161 58.1935484 63.483871 55.5483871 63.483871 55.5483871 76.7096774 76.7096774 76.7096774 76.7096774 74.0645161 74.0645161 74.0645161"></polygon>
                            <polygon id="Path" points="71.4193548 26.4516129 74.0645161 26.4516129 74.0645161 29.0967742 71.4193548 29.0967742"></polygon>
                            <polygon id="Path" points="71.4193548 31.7419355 74.0645161 31.7419355 74.0645161 34.3870968 71.4193548 34.3870968"></polygon>
                            <polygon id="Path" points="5.29032258 10.5806452 7.93548387 10.5806452 7.93548387 13.2258065 5.29032258 13.2258065"></polygon>
                            <polygon id="Path" points="5.29032258 15.8709677 7.93548387 15.8709677 7.93548387 18.516129 5.29032258 18.516129"></polygon>
                        </g>
                    </g>
                </g>
            </g>
        </g>
    </g>
</svg>