<?xml version="1.0" encoding="UTF-8"?>
<svg width="24px" height="24px" viewBox="0 0 24 24" version="1.1" xmlns="http://www.w3.org/2000/svg" xmlns:xlink="http://www.w3.org/1999/xlink">
    <!-- Generator: Sketch 61.2 (89653) - https://sketch.com -->
    <title>Group 14</title>
    <desc>Created with Sketch.</desc>
    <defs>
        <polygon id="path-1" points="0.0555156818 0.204953352 23.1352748 0.204953352 23.1352748 23.1224377 0.0555156818 23.1224377"></polygon>
    </defs>
    <g id="General" stroke="none" stroke-width="1" fill="none" fill-rule="evenodd">
        <g id="Homepage---1440-⚠️" transform="translate(-331.000000, -5961.000000)">
            <g id="Group-10" transform="translate(0.000000, 5685.000000)">
                <g id="Group-5" transform="translate(165.000000, 276.000000)">
                    <g id="Group-3" transform="translate(131.000000, 0.000000)">
                        <g id="Group-14" transform="translate(34.999901, 0.000000)">
                            <mask id="mask-2" fill="white">
                                <use xlink:href="#path-1"></use>
                            </mask>
                            <g id="Clip-13"></g>
                            <path d="M11.5953952,1.07524255 C5.72326795,1.07524255 0.931974773,5.83280709 0.931974773,11.6638431 C0.931974773,17.4946331 5.72326795,22.2521977 11.5953952,22.2521977 C17.4677702,22.2521977 22.2588157,17.4946331 22.2588157,11.6638431 C22.2588157,5.83280709 17.4677702,1.07524255 11.5953952,1.07524255 M11.5953952,23.1224869 C5.22657477,23.1224869 0.0555156818,17.9878298 0.0555156818,11.6638431 C0.0555156818,5.33961042 5.22657477,0.204953352 11.5953952,0.204953352 C17.9642157,0.204953352 23.1352748,5.33961042 23.1352748,11.6638431 C23.1352748,17.9878298 17.9642157,23.1224869 11.5953952,23.1224869" id="Fill-12" fill="#FFFFFF" mask="url(#mask-2)"></path>
                            <path d="M16.6186912,7.17207205 C16.1786813,7.43018012 15.7093207,7.6306878 15.181259,7.71648079 C14.7705997,7.28678675 14.1838368,7 13.5386216,7 C12.3066435,7 11.2801194,8.00326753 11.2801194,9.26415706 C11.2801194,9.43622911 11.3092212,9.60830115 11.3385718,9.78013016 C9.46137844,9.69433718 7.81874096,8.77710567 6.70391643,7.43018012 C6.49846237,7.77408118 6.41041064,8.14666091 6.41041064,8.57635495 C6.41041064,9.35043612 6.82131874,10.0382382 7.40783285,10.4681753 C7.02677279,10.4681753 6.70391643,10.3534606 6.38130879,10.1816316 L6.38130879,10.2103103 C6.38130879,11.2991278 7.14392637,12.2166023 8.20004975,12.41711 C8.02394627,12.4744673 7.81874096,12.5033891 7.6132869,12.5033891 C7.46653401,12.5033891 7.32002985,12.5033891 7.20262753,12.4744673 C7.49588459,13.3630202 8.31720333,14.0223866 9.31462554,14.0510653 C8.55200796,14.6528314 7.58393632,15.0254111 6.52806169,15.0254111 C6.35195821,15.0254111 6.17585474,15.0254111 6,14.9967325 C6.99717348,15.6274203 8.17069917,16 9.46137844,16 C13.5973227,16 15.8854242,12.5605034 15.8854242,9.57962248 L15.8854242,9.29307877 C16.3254342,8.97785639 16.7067429,8.57635495 17,8.11798223 C16.5893406,8.28981124 16.1493307,8.43296157 15.7093207,8.46188329 C16.0906295,8.11798223 16.4425877,7.68780211 16.6186912,7.17207205" id="Fill-10" fill="#FFFFFF" mask="url(#mask-2)"></path>
                        </g>
                    </g>
                </g>
            </g>
        </g>
    </g>
</svg>