<?xml version="1.0" encoding="UTF-8"?>
<svg width="81px" height="78px" viewBox="0 0 81 78" version="1.1" xmlns="http://www.w3.org/2000/svg" xmlns:xlink="http://www.w3.org/1999/xlink">
    <!-- Generator: Sketch 63.1 (92452) - https://sketch.com -->
    <title>gps</title>
    <desc>Created with Sketch.</desc>
    <g id="General" stroke="none" stroke-width="1" fill="none" fill-rule="evenodd">
        <g id="01---O-nás---1440-⚠️" transform="translate(-941.000000, -2910.000000)" fill="#FF3037" fill-rule="nonzero">
            <g id="Group-30" transform="translate(363.000000, 2676.000000)">
                <g id="Group-27" transform="translate(0.000000, 229.000000)">
                    <g id="Group-21" transform="translate(524.000000, 5.000000)">
                        <g id="gps" transform="translate(54.000000, -0.000000)">
                            <path d="M75.686,32.2333214 L59.72675,32.2333214 C58.917,32.2333214 58.2624643,32.8878571 58.2624643,33.6976071 C58.2624643,34.5073571 58.917,35.1618929 59.72675,35.1618929 L73.0546786,35.1618929 L77.2996429,74.6976071 L3.321,74.6976071 L8.30396429,35.1618929 L21.6553214,35.1618929 C22.4650714,35.1618929 23.1196071,34.5073571 23.1196071,33.6976071 C23.1196071,32.8878571 22.4650714,32.2333214 21.6553214,32.2333214 L5.72096429,32.2333214 L0,77.6261786 L80.5606071,77.6261786 L75.686,32.2333214 Z" id="Path"></path>
                            <path d="M39.0290714,55.596 C38.8138214,55.7233929 38.5839286,55.8361429 38.3774643,55.9693929 C38.0553214,56.1773214 37.7405,56.3955 37.4315357,56.621 C36.7799286,57.0998214 36.6393571,58.0164643 37.1167143,58.6680714 C37.4037143,59.0590357 37.8488571,59.2655 38.2998571,59.2655 C38.6000357,59.2655 38.9031429,59.17325 39.16525,58.9828929 C39.4258929,58.7910714 39.6909286,58.6065714 39.9676786,58.4279286 C40.4377143,58.1233571 40.9370357,57.8378214 41.4524643,57.5771786 C42.13775,57.2301429 42.4159643,56.4189286 42.1289643,55.719 C42.1406786,55.7072857 42.1553214,55.6985 42.1655714,55.6867857 C44.8144643,52.8812143 53.74075,42.3676429 57.4366071,24.8518571 C58.1863214,21.2995 58.3547143,17.8906429 57.9373929,14.7204643 C56.6781071,5.09278571 50.6965,0.00292857143 40.6397857,0.00292857143 C30.586,0.00292857143 24.6043929,5.09278571 23.3421786,14.7204643 C22.9263214,17.8921071 23.0947143,21.3009643 23.8444286,24.8518571 C27.5036786,42.1977857 36.2893929,52.6703571 39.0290714,55.596 Z M26.2458571,15.1026429 C27.3191786,6.91435714 32.0283214,2.93296429 40.64125,2.93296429 C49.2556429,2.93296429 53.9633214,6.91435714 55.0351786,15.1026429 C55.4085714,17.9433571 55.2518929,21.02275 54.5724643,24.2500357 C51.25,39.9955 43.3282143,49.9863214 40.64125,53.0173929 C37.9513571,49.9833929 30.0310357,39.9881786 26.7100357,24.2500357 C26.0291429,21.02275 25.8739286,17.9448214 26.2458571,15.1026429 Z" id="Shape"></path>
                            <path d="M40.64125,27.7116071 C46.5730714,27.7116071 51.3978929,22.8867857 51.3978929,16.9549643 C51.3978929,11.0231429 46.5730714,6.19832143 40.64125,6.19832143 C34.7094286,6.19832143 29.8846071,11.0231429 29.8846071,16.9549643 C29.8846071,22.8867857 34.7094286,27.7116071 40.64125,27.7116071 Z M40.64125,9.12835714 C44.9565,9.12835714 48.4693214,12.6397143 48.4693214,16.9564286 C48.4693214,21.2731429 44.9579643,24.7845 40.64125,24.7845 C36.3245357,24.7845 32.8131786,21.2731429 32.8131786,16.9564286 C32.8131786,12.6397143 36.326,9.12835714 40.64125,9.12835714 Z" id="Shape"></path>
                            <path d="M46.0195714,52.9632143 C45.2288571,53.1301429 44.7251429,53.9091429 44.8935357,54.7013214 C45.0399643,55.3895357 45.6476429,55.8595714 46.3241429,55.8595714 C46.4251786,55.8595714 46.5291429,55.8493214 46.6316429,55.8273571 C47.4897143,55.6457857 48.4195357,55.4920357 49.3932857,55.3690357 C50.1957143,55.2709286 50.7667857,54.5387857 50.66575,53.7363571 C50.5661786,52.9324643 49.8413571,52.3526071 49.0330714,52.4638929 C47.9743929,52.5942143 46.9596429,52.7626071 46.0195714,52.9632143 Z" id="Path"></path>
                            <path d="M53.5913929,53.5577143 C53.6236071,54.3440357 54.27375,54.9590357 55.05275,54.9590357 C55.0747143,54.9590357 55.0952143,54.9590357 55.1171786,54.9575714 L58.0472143,54.8360357 C58.8540357,54.7994286 59.48075,54.1141429 59.4426786,53.3073214 C59.4060714,52.4975714 58.6534286,51.8664643 57.9139643,51.9103929 L54.99125,52.0319286 C54.1829643,52.0656071 53.55625,52.7479643 53.5913929,53.5577143 Z" id="Path"></path>
                            <path d="M32.8483214,60.2948929 C32.0956786,60.8630357 31.3181429,61.4092143 30.53475,61.9158571 C29.8567857,62.3566071 29.6635,63.263 30.10425,63.9424286 C30.3839286,64.3743929 30.8554286,64.6086786 31.33425,64.6086786 C31.6080714,64.6086786 31.8833571,64.5325357 32.1308214,64.3729286 C32.9698571,63.8282143 33.8059643,63.2425 34.6127857,62.6333571 C35.2570714,62.14575 35.3859286,61.2276429 34.8997857,60.5818929 C34.4121786,59.942 33.497,59.8072857 32.8483214,60.2948929 Z" id="Path"></path>
                            <path d="M65.4828571,50.6393929 C64.9879286,50.9864286 64.3451071,51.2382857 63.5119286,51.4096071 C62.71975,51.5721429 62.2101786,52.3482143 62.3741786,53.1403929 C62.5176786,53.833 63.1268214,54.3088929 63.8077143,54.3088929 C63.9058214,54.3088929 64.0053929,54.2986429 64.1049643,54.2781429 C65.3378929,54.0233571 66.3394643,53.6162857 67.1741071,53.0291071 L67.3703214,52.8856071 C68.0146071,52.3965357 68.142,51.4784286 67.6543929,50.8341429 C67.1653214,50.1898571 66.2486786,50.0639286 65.6029286,50.5500714 L65.4828571,50.6393929 Z" id="Path"></path>
                            <path d="M12.9735714,62.0886429 C13.1858929,61.3081786 12.7231786,60.5042857 11.9427143,60.2934286 C11.1681071,60.07525 10.3583571,60.5408929 10.1475,61.3242857 C9.963,62.0037143 9.85317857,62.6977857 9.81803571,63.3816071 C9.81071429,63.55 9.80632143,63.7198571 9.80632143,63.8985 C9.80778571,64.1855 9.82096429,64.4725 9.84878571,64.7580357 C9.92639286,65.5121429 10.5618929,66.0729643 11.3042857,66.0729643 C11.3526071,66.0729643 11.4023929,66.0700357 11.4551071,66.0656429 C12.259,65.9821786 12.8447143,65.2646786 12.7641786,64.4593214 C12.7436786,64.2675 12.7363571,64.07275 12.7348929,63.88825 C12.7348929,63.7667143 12.7392857,63.6451786 12.7451429,63.5251071 C12.7685714,63.0506786 12.8447143,62.566 12.9735714,62.0886429 Z" id="Path"></path>
                            <path d="M65.4506429,39.2575 C64.288,39.1022857 63.1019286,39.1974643 61.9568571,39.5225357 C61.1778571,39.7407143 60.7253929,40.5504643 60.9465,41.328 C61.1280714,41.97375 61.71525,42.3954643 62.3536786,42.3954643 C62.4869286,42.3954643 62.6201786,42.3778929 62.7519643,42.3398214 C63.5133929,42.1260357 64.2967857,42.0586786 65.0582143,42.1611786 C65.8811429,42.2636786 66.5986429,41.7057857 66.7055357,40.9062857 C66.8138929,40.1023929 66.2516071,39.3658571 65.4506429,39.2575 Z" id="Path"></path>
                            <path d="M68.3645714,46.5115714 C68.1258929,47.28325 68.5593214,48.1047143 69.331,48.3419286 C69.4759643,48.3873214 69.6194643,48.4078214 69.7629643,48.4078214 C70.3896786,48.4078214 70.9680714,48.0051429 71.1613571,47.3755 C71.3063214,46.9098571 71.3956429,46.4368929 71.4293214,45.9653929 C71.4366429,45.8438571 71.4410357,45.7208571 71.4410357,45.5993214 C71.4410357,44.9140357 71.3151071,44.2272857 71.0676429,43.5610357 C70.7865,42.8010714 69.9386786,42.4174286 69.1860357,42.6971071 C68.4260714,42.97825 68.0409643,43.8216786 68.3221071,44.5787143 C68.4480357,44.9184286 68.5124643,45.2625357 68.5124643,45.5978571 L68.5080714,45.7691786 C68.4905,46.01225 68.4436429,46.2553214 68.3645714,46.5115714 Z" id="Path"></path>
                            <path d="M25.5971786,64.6687143 C24.7391071,65.0713929 23.8649286,65.4447857 22.9995357,65.7801071 C22.2454286,66.0700357 21.8705714,66.9178571 22.1619643,67.6734286 C22.386,68.2532857 22.9395,68.6105714 23.5281429,68.6105714 C23.7038571,68.6105714 23.8825,68.5798214 24.0552857,68.5124643 C24.9851071,68.1537143 25.92225,67.7525 26.8418214,67.322 C27.5739643,66.9793571 27.8887857,66.1066429 27.5446786,65.3745 C27.2035,64.6408929 26.3337143,64.3231429 25.5971786,64.6687143 Z" id="Path"></path>
                            <path d="M14.9371786,58.5728929 C15.1729286,58.5728929 15.4130714,58.5157857 15.6371071,58.39425 C16.0588214,58.1643571 16.5083571,58.0208571 16.9710714,57.9710714 C17.16875,57.9476429 17.3708214,57.9476429 17.5655714,57.974 C18.3899643,58.0808929 19.1030714,57.5156786 19.2085,56.7147143 C19.3139286,55.9122857 18.7501786,55.1772143 17.9492143,55.0717857 C17.5128571,55.0146786 17.0691786,55.01175 16.6445357,55.0600714 C15.8040357,55.1523214 14.9928214,55.4100357 14.2343214,55.8229643 C13.5241429,56.211 13.2620357,57.0983571 13.6500714,57.8085357 C13.9165714,58.2976071 14.4188214,58.5728929 14.9371786,58.5728929 Z" id="Path"></path>
                            <path d="M14.6326071,70.0543571 C14.9488929,70.1363571 15.2710357,70.1978571 15.59025,70.2359286 C15.9651071,70.2813214 16.3399643,70.30475 16.7162857,70.30475 C17.1746071,70.30475 17.6343929,70.2725357 18.0927143,70.2139643 C18.8951429,70.1129286 19.46475,69.3807857 19.36225,68.5783571 C19.25975,67.7759286 18.532,67.2107143 17.7266429,67.3088214 C17.1350714,67.3849643 16.5376429,67.4025357 15.9460714,67.3307857 C15.7527857,67.3058929 15.5595,67.2692857 15.3691429,67.2209643 C14.58575,67.0115714 13.7877143,67.486 13.5827143,68.2693929 C13.3821071,69.0527857 13.8506786,69.8522857 14.6326071,70.0543571 Z" id="Path"></path>
                        </g>
                    </g>
                </g>
            </g>
        </g>
    </g>
</svg>