<?xml version="1.0" encoding="UTF-8"?>
<svg width="82px" height="82px" viewBox="0 0 82 82" version="1.1" xmlns="http://www.w3.org/2000/svg" xmlns:xlink="http://www.w3.org/1999/xlink">
    <!-- Generator: Sketch 63.1 (92452) - https://sketch.com -->
    <title>appointment</title>
    <desc>Created with Sketch.</desc>
    <g id="General" stroke="none" stroke-width="1" fill="none" fill-rule="evenodd">
        <g id="01---O-nás---1440-⚠️" transform="translate(-941.000000, -2676.000000)" fill="#FF3037" fill-rule="nonzero">
            <g id="Group-30" transform="translate(363.000000, 2676.000000)">
                <g id="Group-25">
                    <g id="Group-15" transform="translate(524.000000, 0.000000)">
                        <g id="appointment" transform="translate(54.000000, 0.000000)">
                            <path d="M73.9921875,7.046875 L66.3580195,7.046875 L66.3580195,4.8046875 C66.3580195,2.15538281 64.2026367,0 61.553332,0 C58.9040273,0 56.7486445,2.15538281 56.7486445,4.8046875 L56.7486445,7.046875 L29.8423945,7.046875 L29.8423945,4.8046875 C29.8423945,2.15538281 27.6870117,0 25.037707,0 C22.3884023,0 20.2330195,2.15538281 20.2330195,4.8046875 L20.2330195,7.10613281 C20.0968867,7.06849609 19.9541875,7.046875 19.806043,7.046875 L13.4247773,7.046875 C9.00926953,7.046875 5.41696484,10.6391797 5.41696484,15.0546875 L5.41696484,42.334582 C5.41696484,43.219125 6.13414453,43.9361445 7.01852734,43.9361445 C7.90291016,43.9361445 8.62008984,43.219125 8.62008984,42.334582 L8.62008984,23.5429688 L66.3580195,23.5429688 C67.2424023,23.5429688 67.959582,22.8259492 67.959582,21.9414062 C67.959582,21.0568633 67.2424023,20.3398438 66.3580195,20.3398438 L8.62008984,20.3398438 L8.62008984,15.0546875 C8.62008984,12.4053828 10.7754727,10.25 13.4247773,10.25 L19.806043,10.25 C19.9541875,10.25 20.0968867,10.2282187 20.2330195,10.1907422 L20.2330195,12.2519531 C20.2330195,14.9012578 22.3884023,17.0566406 25.037707,17.0566406 C27.6870117,17.0566406 29.8423945,14.9012578 29.8423945,12.2519531 L29.8423945,10.25 L56.7486445,10.25 L56.7486445,12.2519531 C56.7486445,14.9012578 58.9040273,17.0566406 61.553332,17.0566406 C64.2026367,17.0566406 66.3580195,14.9012578 66.3580195,12.2519531 L66.3580195,10.25 L73.9921875,10.25 C76.6414922,10.25 78.796875,12.4053828 78.796875,15.0546875 L78.796875,75.9131016 C78.796875,77.5031328 77.503293,78.796875 75.9131016,78.796875 C74.3229102,78.796875 73.0293281,77.5031328 73.0293281,75.9131016 L73.0293281,71.7700195 C73.0293281,70.8854766 72.3121484,70.168457 71.4277656,70.168457 L52.7982305,70.168457 C51.9138477,70.168457 51.196668,70.8854766 51.196668,71.7700195 C51.196668,72.6545625 51.9138477,73.371582 52.7982305,73.371582 L69.8262031,73.371582 L69.8262031,75.9131016 C69.8262031,76.9558789 70.0901406,77.937957 70.5541133,78.796875 L6.0859375,78.796875 C4.49638672,78.796875 3.203125,77.5036133 3.203125,75.9140625 L3.203125,73.371582 L39.0500977,73.371582 C39.9344805,73.371582 40.6516602,72.6545625 40.6516602,71.7700195 C40.6516602,70.8854766 39.9344805,70.168457 39.0500977,70.168457 L23.0479258,70.168457 C25.8464961,67.7582656 27.6235898,64.1931875 27.6235898,60.21875 C27.6235898,52.9772852 21.7322422,47.0859375 14.4907773,47.0859375 C7.2493125,47.0859375 1.35796484,52.9772852 1.35796484,60.21875 C1.35796484,64.1931875 3.13505859,67.7582656 5.93362891,70.168457 L1.6015625,70.168457 C0.717179687,70.168457 0,70.8854766 0,71.7700195 L0,75.9140625 C0,79.2698164 2.73018359,82 6.0859375,82 L75.9131016,82 C79.2693359,82 82,79.2694961 82,75.9131016 L82,15.0546875 C82,10.6391797 78.4076953,7.046875 73.9921875,7.046875 Z M26.6392695,12.2519531 C26.6392695,13.1350547 25.9208086,13.8535156 25.037707,13.8535156 C24.1546055,13.8535156 23.4361445,13.1350547 23.4361445,12.2519531 L23.4361445,4.8046875 C23.4361445,3.92158594 24.1546055,3.203125 25.037707,3.203125 C25.9208086,3.203125 26.6392695,3.92158594 26.6392695,4.8046875 L26.6392695,12.2519531 Z M63.1548945,12.2519531 C63.1548945,13.1350547 62.4364336,13.8535156 61.553332,13.8535156 C60.6702305,13.8535156 59.9517695,13.1350547 59.9517695,12.2519531 L59.9517695,4.8046875 C59.9517695,3.92158594 60.6702305,3.203125 61.553332,3.203125 C62.4364336,3.203125 63.1548945,3.92158594 63.1548945,4.8046875 L63.1548945,12.2519531 Z M4.56108984,60.21875 C4.56108984,54.7434883 9.01551563,50.2890625 14.4907773,50.2890625 C19.9660391,50.2890625 24.4204648,54.7434883 24.4204648,60.21875 C24.4204648,65.6940117 19.9660391,70.1484375 14.4907773,70.1484375 C9.01551562,70.1484375 4.56108984,65.6940117 4.56108984,60.21875 Z" id="Shape"></path>
                            <path d="M75.0026133,20.8091016 C74.7048828,20.5112109 74.2916797,20.3398438 73.8704688,20.3398438 C73.4490977,20.3398438 73.0360547,20.5112109 72.7381641,20.8091016 C72.4402734,21.1069922 72.2689063,21.5201953 72.2689063,21.9414062 C72.2689063,22.3626172 72.4401133,22.7758203 72.7381641,23.0737109 C73.0362148,23.3716016 73.4490977,23.5429688 73.8704688,23.5429688 C74.2916797,23.5429688 74.7048828,23.3716016 75.0026133,23.0737109 C75.3005039,22.7758203 75.4720313,22.3626172 75.4720313,21.9414062 C75.4720313,21.5201953 75.3006641,21.1069922 75.0026133,20.8091016 Z" id="Path"></path>
                            <path d="M47.8305039,70.6369141 C47.5327734,70.3390234 47.1195703,70.1692578 46.6983594,70.1692578 C46.2771484,70.1692578 45.8639453,70.3390234 45.5660547,70.6369141 C45.2681641,70.9364063 45.0967969,71.3480078 45.0967969,71.7692188 C45.0967969,72.1920312 45.2680039,72.6036328 45.5660547,72.903125 C45.8639453,73.2010156 46.2771484,73.3707813 46.6983594,73.3707813 C47.1195703,73.3707813 47.5327734,73.2010156 47.8305039,72.903125 C48.1283945,72.6036328 48.2999219,72.1904297 48.2999219,71.7692188 C48.2999219,71.3480078 48.1285547,70.9364063 47.8305039,70.6369141 Z" id="Path"></path>
                            <path d="M36.2345508,48.6875 C32.8787969,48.6875 30.1486133,51.4176836 30.1486133,54.7734375 C30.1486133,58.1291914 32.8787969,60.859375 36.2345508,60.859375 C39.5903047,60.859375 42.3204883,58.1291914 42.3204883,54.7734375 C42.3204883,51.4176836 39.5903047,48.6875 36.2345508,48.6875 Z M36.2345508,57.65625 C34.645,57.65625 33.3517383,56.3629883 33.3517383,54.7734375 C33.3517383,53.1838867 34.645,51.890625 36.2345508,51.890625 C37.8241016,51.890625 39.1173633,53.1838867 39.1173633,54.7734375 C39.1173633,56.3629883 37.8241016,57.65625 36.2345508,57.65625 Z" id="Shape"></path>
                            <path d="M51.1824141,48.6875 C47.8266602,48.6875 45.0964766,51.4176836 45.0964766,54.7734375 C45.0964766,58.1291914 47.8266602,60.859375 51.1824141,60.859375 C54.538168,60.859375 57.2683516,58.1291914 57.2683516,54.7734375 C57.2683516,51.4176836 54.538168,48.6875 51.1824141,48.6875 Z M51.1824141,57.65625 C49.5928633,57.65625 48.2996016,56.3629883 48.2996016,54.7734375 C48.2996016,53.1838867 49.5928633,51.890625 51.1824141,51.890625 C52.7719648,51.890625 54.0652266,53.1838867 54.0652266,54.7734375 C54.0652266,56.3629883 52.7719648,57.65625 51.1824141,57.65625 Z" id="Shape"></path>
                            <path d="M66.1304375,48.6875 C62.7746836,48.6875 60.0445,51.4176836 60.0445,54.7734375 C60.0445,58.1291914 62.7746836,60.859375 66.1304375,60.859375 C69.4861914,60.859375 72.216375,58.1291914 72.216375,54.7734375 C72.216375,51.4176836 69.4861914,48.6875 66.1304375,48.6875 Z M66.1304375,57.65625 C64.5408867,57.65625 63.247625,56.3629883 63.247625,54.7734375 C63.247625,53.1838867 64.5408867,51.890625 66.1304375,51.890625 C67.7199883,51.890625 69.01325,53.1838867 69.01325,54.7734375 C69.01325,56.3629883 67.7199883,57.65625 66.1304375,57.65625 Z" id="Shape"></path>
                            <path d="M21.2866875,32.03125 C17.9309336,32.03125 15.20075,34.7614336 15.20075,38.1171875 C15.20075,41.4729414 17.9309336,44.203125 21.2866875,44.203125 C24.6424414,44.203125 27.372625,41.4729414 27.372625,38.1171875 C27.372625,34.7614336 24.6424414,32.03125 21.2866875,32.03125 Z M21.2866875,41 C19.6971367,41 18.403875,39.7067383 18.403875,38.1171875 C18.403875,36.5276367 19.6971367,35.234375 21.2866875,35.234375 C22.8762383,35.234375 24.1695,36.5276367 24.1695,38.1171875 C24.1695,39.7067383 22.8762383,41 21.2866875,41 Z" id="Shape"></path>
                            <path d="M51.1824141,32.03125 C47.8266602,32.03125 45.0964766,34.7614336 45.0964766,38.1171875 C45.0964766,41.4729414 47.8266602,44.203125 51.1824141,44.203125 C54.538168,44.203125 57.2683516,41.4729414 57.2683516,38.1171875 C57.2683516,34.7614336 54.538168,32.03125 51.1824141,32.03125 Z M51.1824141,41 C49.5928633,41 48.2996016,39.7067383 48.2996016,38.1171875 C48.2996016,36.5276367 49.5928633,35.234375 51.1824141,35.234375 C52.7719648,35.234375 54.0652266,36.5276367 54.0652266,38.1171875 C54.0652266,39.7067383 52.7719648,41 51.1824141,41 Z" id="Shape"></path>
                            <path d="M66.1304375,32.03125 C62.7746836,32.03125 60.0445,34.7614336 60.0445,38.1171875 C60.0445,41.4729414 62.7746836,44.203125 66.1304375,44.203125 C69.4861914,44.203125 72.216375,41.4729414 72.216375,38.1171875 C72.216375,34.7614336 69.4861914,32.03125 66.1304375,32.03125 Z M66.1304375,41 C64.5408867,41 63.247625,39.7067383 63.247625,38.1171875 C63.247625,36.5276367 64.5408867,35.234375 66.1304375,35.234375 C67.7199883,35.234375 69.01325,36.5276367 69.01325,38.1171875 C69.01325,39.7067383 67.7199883,41 66.1304375,41 Z" id="Shape"></path>
                            <path d="M36.2345508,32.03125 C32.8787969,32.03125 30.1486133,34.7614336 30.1486133,38.1171875 C30.1486133,41.4729414 32.8787969,44.203125 36.2345508,44.203125 C39.5903047,44.203125 42.3204883,41.4729414 42.3204883,38.1171875 C42.3204883,34.7614336 39.5903047,32.03125 36.2345508,32.03125 Z M36.2345508,41 C34.645,41 33.3517383,39.7067383 33.3517383,38.1171875 C33.3517383,36.5276367 34.645,35.234375 36.2345508,35.234375 C37.8241016,35.234375 39.1173633,36.5276367 39.1173633,38.1171875 C39.1173633,39.7067383 37.8241016,41 36.2345508,41 Z" id="Shape"></path>
                            <path d="M20.1963437,56.315582 C19.5707734,55.6901719 18.5569844,55.6901719 17.9312539,56.315582 L12.7156055,61.5313906 L10.9332266,59.7490117 C10.3076562,59.1236016 9.29386719,59.1236016 8.66813672,59.7490117 C8.04272656,60.3744219 8.04272656,61.3885312 8.66813672,62.0141016 L11.5831406,64.9287852 C11.8835937,65.2290781 12.2908711,65.3978828 12.7156055,65.3978828 C13.1403398,65.3978828 13.5476172,65.2290781 13.8480703,64.9287852 L20.1963437,58.5805117 C20.8217539,57.9551016 20.8217539,56.9409922 20.1963437,56.315582 Z" id="Path"></path>
                        </g>
                    </g>
                </g>
            </g>
        </g>
    </g>
</svg>