<?xml version="1.0" encoding="UTF-8"?>
<svg width="82px" height="82px" viewBox="0 0 82 82" version="1.1" xmlns="http://www.w3.org/2000/svg" xmlns:xlink="http://www.w3.org/1999/xlink">
    <!-- Generator: Sketch 63.1 (92452) - https://sketch.com -->
    <title>asketch</title>
    <desc>Created with Sketch.</desc>
    <g id="General" stroke="none" stroke-width="1" fill="none" fill-rule="evenodd">
        <g id="01---O-nás---1440-⚠️" transform="translate(-417.000000, -2676.000000)" fill="#FF3037" fill-rule="nonzero">
            <g id="Group-30" transform="translate(363.000000, 2676.000000)">
                <g id="Group-25">
                    <g id="Group-20">
                        <g id="asketch" transform="translate(54.000000, 0.000000)">
                            <path d="M72.5562266,57.8679766 C72.1065078,57.6815547 71.5888828,57.7845352 71.2445469,58.1287109 L58.0915547,71.2817031 C57.7473789,71.6260391 57.6443984,72.1436641 57.8308203,72.5933828 C58.0169219,73.0432617 58.4560703,73.3363477 58.9427852,73.3363477 L72.0957773,73.3363477 C72.7605859,73.3363477 73.2993516,72.797582 73.2993516,72.1327734 L73.2993516,58.9797813 C73.2991914,58.4930664 73.0059453,58.0542383 72.5562266,57.8679766 Z M61.8480195,70.9293594 L70.8918828,61.8854961 L70.8918828,70.9293594 L61.8480195,70.9293594 Z" id="Shape"></path>
                            <path d="M81.2570352,38.5763555 C80.8073164,38.3899336 80.2896914,38.4929141 79.9453555,38.8370898 L76.3407187,42.4417266 L76.3407187,17.9328555 C76.3407187,17.2680469 75.801793,16.7292812 75.1371445,16.7292812 L65.8895625,16.7292812 L69.2464375,13.3724063 C69.246918,13.3719258 69.2473984,13.3712852 69.2478789,13.3708047 L72.4823945,10.1362891 C73.1753906,9.44329297 73.557043,8.52143359 73.557043,7.54127734 C73.557043,6.56112109 73.1753906,5.63958203 72.4823945,4.94626562 L68.7421055,1.20597656 C68.0491094,0.512980469 67.12725,0.131328125 66.1470937,0.131328125 C65.1669375,0.131328125 64.2452383,0.512980469 63.552082,1.20597656 L60.3159648,4.44209375 L56.4055898,8.35246875 L48.0289375,16.7291211 L10.6696094,16.7291211 L10.6696094,4.82230469 C10.6696094,4.15749609 10.1306836,3.61873047 9.46603516,3.61873047 C4.24654297,3.61905078 0,7.86527344 0,13.0850859 L0,64.2047187 C0,64.2936055 0.01025,64.3800898 0.0285078125,64.4633711 C0.19475,66.6781719 1.15296484,68.7360195 2.75436719,70.2981836 C4.46611719,71.9676523 6.72576172,72.8871094 9.11721484,72.8871094 L45.8951758,72.8871094 L38.9685781,79.813707 C38.6244023,80.158043 38.5214219,80.6755078 38.7076836,81.1253867 C38.8939453,81.5751055 39.3329336,81.8683516 39.8196484,81.8683516 L80.7964258,81.8683516 C81.4610742,81.8683516 82,81.3295859 82,80.6647773 L82,39.6883203 C82,39.2016055 81.7065937,38.7626172 81.2570352,38.5763555 Z M65.254543,2.90827734 C65.746543,2.41595703 66.548125,2.41595703 67.040125,2.90827734 L70.7805742,6.64872656 C71.2728945,7.14088672 71.2728945,7.94214844 70.7805742,8.43446875 L68.3956875,10.8195156 L62.8693359,5.29332422 L65.254543,2.90827734 Z M61.1671953,6.99546484 L66.6933867,12.5214961 L64.4849922,14.7298906 L58.9591211,9.20385937 L61.1671953,6.99546484 Z M79.5931719,53.2122344 L77.3726055,53.2122344 C76.7077969,53.2122344 76.1690312,53.751 76.1690312,54.4158086 C76.1690312,55.0806172 76.7077969,55.6193828 77.3726055,55.6193828 L79.5931719,55.6193828 L79.5931719,59.2462813 L77.3726055,59.2462813 C76.7077969,59.2462813 76.1690312,59.7850469 76.1690312,60.4498555 C76.1690312,61.1146641 76.7077969,61.6534297 77.3726055,61.6534297 L79.5931719,61.6534297 L79.5931719,65.280168 L77.3726055,65.280168 C76.7077969,65.280168 76.1690312,65.8189336 76.1690312,66.4837422 C76.1690312,67.1485508 76.7077969,67.6873164 77.3726055,67.6873164 L79.5931719,67.6873164 L79.5931719,71.3142148 L77.3726055,71.3142148 C76.7077969,71.3142148 76.1690312,71.8531406 76.1690312,72.5177891 C76.1690312,73.1825977 76.7077969,73.7213633 77.3726055,73.7213633 L79.5931719,73.7213633 L79.5931719,79.4616836 L42.7252031,79.4616836 L54.8823438,67.3047031 C55.3524023,66.8344844 55.3524023,66.0726211 54.8823438,65.6025625 C54.8283711,65.5485898 54.7703945,65.5018242 54.7096953,65.4601836 C54.2410781,65.1392305 53.5962891,65.1864766 53.180043,65.6025625 L48.3023242,70.4802812 L9.117375,70.4802812 C5.46709375,70.4802812 2.52854687,67.6304609 2.41291406,63.9867461 C2.41980078,63.758043 2.43757812,63.5312617 2.46608594,63.307043 C2.46624609,63.3057617 2.46640625,63.3044805 2.46656641,63.3031992 C2.48001953,63.1966953 2.49619531,63.0906719 2.51461328,62.9852891 C2.51669531,62.9732773 2.5189375,62.9612656 2.52101953,62.9492539 C2.53783594,62.8552422 2.55673437,62.7617109 2.57739453,62.6685 C2.58316016,62.6425547 2.58924609,62.6166094 2.59533203,62.5908242 C2.61358984,62.5120273 2.63328906,62.4337109 2.65442969,62.3557148 C2.66596094,62.3134336 2.67797266,62.2716328 2.69030469,62.2295117 C2.70792187,62.168332 2.72617969,62.1073125 2.74555859,62.0469336 C2.7649375,61.9865547 2.78559766,61.9268164 2.80657812,61.8670781 C2.82115234,61.8252773 2.83556641,61.7834766 2.85126172,61.7419961 C2.88057031,61.6631992 2.91164062,61.5852031 2.94367187,61.5078477 C2.95280078,61.4855859 2.96176953,61.4630039 2.97121875,61.4407422 C3.01237891,61.3446484 3.05514062,61.2496758 3.10030469,61.1558242 C3.10222656,61.1518203 3.10398828,61.1478164 3.10591016,61.1438125 C4.04730859,59.1956719 5.857875,57.7432148 8.03071484,57.2925352 C8.03680078,57.2912539 8.04288672,57.2898125 8.04897266,57.2885312 C8.14858984,57.2681914 8.24916797,57.2507344 8.35038672,57.2345586 C8.36720312,57.2318359 8.38401953,57.2284727 8.40115625,57.2259102 C8.49260547,57.2119766 8.58501562,57.2010859 8.67742578,57.1906758 C8.70337109,57.187793 8.72915625,57.1837891 8.75526172,57.1812266 C8.84446875,57.1722578 8.93447656,57.166332 9.02448437,57.1607266 C9.05299219,57.1589648 9.0815,57.1559219 9.11000781,57.1544805 C9.22788281,57.1485547 9.34671875,57.1455117 9.46603516,57.1455117 C10.1306836,57.1455117 10.6696094,56.6067461 10.6696094,55.9419375 L10.6696094,47.2151836 C10.6696094,46.550375 10.1306836,46.0116094 9.46603516,46.0116094 C8.80138672,46.0116094 8.26246094,46.550375 8.26246094,47.2151836 L8.26246094,54.8141172 C6.23007812,55.071168 4.34359766,55.9776523 2.85606641,57.4302695 C2.69959375,57.5830586 2.55128906,57.7419336 2.40682812,57.9033711 L2.40682812,13.0850859 C2.40682812,9.60312891 4.94146094,6.70157812 8.26230078,6.12853906 L8.26230078,17.9328555 L8.26230078,42.4010469 L8.26230078,42.401207 C8.26230078,43.0658555 8.80122656,43.6047812 9.465875,43.6047812 C10.1305234,43.6047812 10.6694492,43.0658555 10.6694492,42.401207 L10.6694492,42.4010469 L10.6694492,19.1364297 L45.6219492,19.1364297 L38.968418,25.7899609 C38.4983594,26.2601797 38.4983594,27.022043 38.968418,27.4921016 C39.4384766,27.962 40.2005,27.962 40.6703984,27.4921016 L49.3785742,18.7839258 C49.3788945,18.7836055 49.3790547,18.7832852 49.379375,18.783125 L57.2566602,10.9058398 L62.7825313,16.4320313 L62.1342188,17.0803438 C62.1337383,17.0808242 62.1330977,17.0813047 62.1326172,17.0817852 L37.8644609,41.3502617 L32.3384297,35.8242305 L37.1219766,31.0406836 C37.5920352,30.5704648 37.5920352,29.8086016 37.1219766,29.338543 C36.651918,28.8686445 35.8898945,28.8686445 35.4199961,29.338543 L29.7852187,34.9731602 C29.7551094,35.0032695 29.7269219,35.0351406 29.7004961,35.0678125 C29.6916875,35.0787031 29.6838398,35.0903945 29.6755117,35.1017656 C29.6585352,35.1243477 29.6418789,35.1470898 29.6263438,35.170793 C29.6175352,35.1845664 29.6095273,35.1986602 29.6011992,35.2129141 C29.5879062,35.2353359 29.5750937,35.2580781 29.5634023,35.2813008 C29.5557148,35.2963555 29.5488281,35.3115703 29.5417813,35.3272656 C29.5310508,35.3508086 29.5211211,35.374832 29.5119922,35.3988555 C29.5087891,35.4073438 29.504625,35.4153516 29.501582,35.4238398 L27.1567344,42.0663203 L25.5580547,46.5953789 C25.5369141,46.6555977 25.5216992,46.7167773 25.5103281,46.7784375 L21.5077031,46.7784375 C20.8430547,46.7784375 20.3041289,47.3172031 20.3041289,47.9820117 C20.3041289,48.6468203 20.8430547,49.1855859 21.5077031,49.1855859 L54.8384609,49.1855859 C55.5032695,49.1855859 56.0420352,48.6468203 56.0420352,47.9820117 C56.0420352,47.3172031 55.5032695,46.7784375 54.8384609,46.7784375 L30.9250508,46.7784375 L38.2650117,44.1874297 C38.2710977,44.1851875 38.2768633,44.1821445 38.2829492,44.1799023 C38.311457,44.169332 38.3394844,44.1574805 38.3671914,44.1448281 C38.3782422,44.1397031 38.389293,44.1348984 38.4000234,44.1296133 C38.4288516,44.1151992 38.4571992,44.0993437 38.4850664,44.0823672 C38.4940352,44.0769219 38.5033242,44.071957 38.5121328,44.0663516 C38.5411211,44.0477734 38.5693086,44.0274336 38.5970156,44.0059727 C38.6039023,44.0006875 38.6111094,43.996043 38.6178359,43.9905977 C38.6513086,43.9636914 38.6841406,43.9347031 38.7152109,43.9036328 L63.4824141,19.1365898 L73.9334102,19.1365898 L73.9334102,44.8490352 L56.7172539,62.0653516 C56.2471953,62.5355703 56.2471953,63.2974336 56.7172539,63.7674922 C56.7465625,63.7968008 56.7771523,63.8243477 56.8087031,63.8501328 C57.0293984,64.0299883 57.2989414,64.1199961 57.5683242,64.1199961 C57.837707,64.1199961 58.1074102,64.0299883 58.3279453,63.8501328 C58.3594961,63.8245078 58.3900859,63.7968008 58.4193945,63.7674922 C58.419875,63.7670117 58.4193945,63.7674922 58.419875,63.7670117 L79.5931719,42.5935547 L79.5931719,53.2122344 Z M35.6631133,42.552875 L32.2155898,43.7699023 L29.9186289,41.4729414 L31.1356562,38.025418 L35.6631133,42.552875 Z" id="Shape"></path>
                        </g>
                    </g>
                </g>
            </g>
        </g>
    </g>
</svg>