<?xml version="1.0" encoding="UTF-8"?>
<svg width="82px" height="82px" viewBox="0 0 82 82" version="1.1" xmlns="http://www.w3.org/2000/svg" xmlns:xlink="http://www.w3.org/1999/xlink">
    <!-- Generator: Sketch 63.1 (92452) - https://sketch.com -->
    <title>home</title>
    <desc>Created with Sketch.</desc>
    <g id="General" stroke="none" stroke-width="1" fill="none" fill-rule="evenodd">
        <g id="01---O-nás---1440-⚠️" transform="translate(-417.000000, -2905.000000)" fill="#FF3037" fill-rule="nonzero">
            <g id="Group-30" transform="translate(363.000000, 2676.000000)">
                <g id="Group-27" transform="translate(0.000000, 229.000000)">
                    <g id="Group-23">
                        <g id="home" transform="translate(54.000000, 0.000000)">
                            <path d="M60.0696445,22.7311367 C59.7719141,22.4332461 59.3587109,22.2618789 58.9375,22.2618789 C58.5162891,22.2618789 58.1030859,22.4332461 57.8051953,22.7311367 C57.5073047,23.0290273 57.3359375,23.4406289 57.3359375,23.8634414 C57.3359375,24.2846523 57.5071445,24.6978555 57.8051953,24.9957461 C58.1032461,25.2936367 58.5162891,25.4650039 58.9375,25.4650039 C59.3587109,25.4650039 59.7719141,25.2936367 60.0696445,24.9957461 C60.3675352,24.6978555 60.5390625,24.2846523 60.5390625,23.8634414 C60.5390625,23.4422305 60.3676953,23.0290273 60.0696445,22.7311367 Z" id="Path"></path>
                            <path d="M24.0234375,45.1642227 L11.2109375,45.1642227 C10.3265547,45.1642227 9.609375,45.8812422 9.609375,46.7657852 L9.609375,59.5782852 C9.609375,60.4628281 10.3265547,61.1798477 11.2109375,61.1798477 L24.0234375,61.1798477 C24.9078203,61.1798477 25.625,60.4628281 25.625,59.5782852 L25.625,46.7657852 C25.625,45.8812422 24.9079805,45.1642227 24.0234375,45.1642227 Z M22.421875,57.9767227 L12.8125,57.9767227 L12.8125,48.3673477 L22.421875,48.3673477 L22.421875,57.9767227 Z" id="Shape"></path>
                            <path d="M81.0113555,33.5946953 C80.4128516,33.3466133 79.7238594,33.4840273 79.2659727,33.9417539 L62.9463711,50.2613555 C62.9462109,50.2616758 62.9458906,50.2618359 62.9455703,50.2621563 C62.94525,50.2624766 62.9450898,50.2626367 62.9449297,50.262957 L43.9209297,69.286957 C43.9206094,69.2872773 43.9204492,69.2874375 43.9201289,69.2877578 C43.9198086,69.2880781 43.9196484,69.2882383 43.9193281,69.2885586 L33.9417539,79.2661328 C33.4838672,79.7241797 33.3467734,80.4131719 33.5945352,81.0115156 C33.842457,81.6100195 34.4263867,82.0001602 35.0742188,82.0001602 L80.3984375,82.0001602 C81.2828203,82.0001602 82,81.2831406 82,80.3985977 L82,35.0743789 C82,34.426707 81.6098594,33.8426172 81.0113555,33.5946953 Z M78.796875,78.7970352 L38.9408711,78.7970352 L45.0525937,72.6853125 L46.5814453,74.2141641 C46.8942305,74.5269492 47.3040703,74.6832617 47.7139102,74.6832617 C48.12375,74.6832617 48.5335898,74.5269492 48.846375,74.2141641 C49.4717852,73.5887539 49.4717852,72.5746445 48.846375,71.9490742 L47.3175234,70.4202227 L51.3944609,66.3432852 L52.9231523,67.8719766 C53.2359375,68.1847617 53.6457773,68.3410742 54.0556172,68.3410742 C54.465457,68.3410742 54.8752969,68.1846016 55.188082,67.8719766 C55.8134922,67.2465664 55.8134922,66.232457 55.188082,65.6070469 L53.6592305,64.0781953 L57.736168,60.0012578 L59.2650195,61.5301094 C59.5778047,61.8428945 59.9876445,61.999207 60.3974844,61.999207 C60.8073242,61.999207 61.2171641,61.8428945 61.5299492,61.5301094 C62.1553594,60.9046992 62.1553594,59.8905898 61.5299492,59.2650195 L60.0010977,57.736168 L64.077875,53.6593906 L65.6067266,55.1882422 C65.9195117,55.5010273 66.3293516,55.6573398 66.7391914,55.6573398 C67.1490313,55.6573398 67.5588711,55.5010273 67.8716563,55.1882422 C68.4970664,54.562832 68.4970664,53.5487227 67.8716563,52.9231523 L66.3428047,51.3943008 L70.4197422,47.3173633 L71.9484336,48.8460547 C72.2612188,49.1588398 72.6710586,49.3151523 73.0808984,49.3151523 C73.4907383,49.3151523 73.9005781,49.1586797 74.2133633,48.8460547 C74.8387734,48.2206445 74.8387734,47.2065352 74.2133633,46.581125 L72.6845117,45.0522734 L78.796875,38.9408711 L78.796875,78.7970352 Z" id="Shape"></path>
                            <path d="M73.003543,52.9273164 C72.4050391,52.6792344 71.7160469,52.8164883 71.2581602,53.274375 L53.274375,71.2583203 C52.8164883,71.7163672 52.6792344,72.4051992 52.9271562,73.0037031 C53.1750781,73.602207 53.7590078,73.9923477 54.4068398,73.9923477 L72.390625,73.9923477 C73.2750078,73.9923477 73.9921875,73.2753281 73.9921875,72.3907852 L73.9921875,54.407 C73.9921875,53.7593281 73.6020469,53.1752383 73.003543,52.9273164 Z M70.7890625,70.7892227 L58.2734922,70.7892227 L70.7890625,58.2734922 L70.7890625,70.7892227 Z" id="Shape"></path>
                            <path d="M74.1619531,23.905082 C73.721043,23.464332 73.0647227,23.3192305 72.4787109,23.5336797 L61.543082,27.5383867 C61.3244687,27.6184648 61.1260352,27.7451484 60.9612344,27.9097891 L57.8863945,30.9846289 L37.8082461,10.9063203 C37.507793,10.6060273 37.1005156,10.4372227 36.6757812,10.4372227 C36.2510469,10.4372227 35.8436094,10.6060273 35.5433164,10.9063203 L11.3752578,35.0743789 L5.46821484,35.0743789 L36.6757812,3.86665234 L53.8011289,20.992 C54.4266992,21.6174102 55.4404883,21.6174102 56.0662187,20.992 C56.6916289,20.3665898 56.6916289,19.3524805 56.0662187,18.7269102 L37.8084062,0.469097656 C37.1828359,-0.1563125 36.1690469,-0.1563125 35.5433164,0.469097656 L0.469097656,35.5433164 C0.0112109375,36.0013633 -0.125882813,36.6901953 0.121878906,37.2886992 C0.369800781,37.8873633 0.953730469,38.2775039 1.6015625,38.2775039 L3.203125,38.2775039 L3.203125,80.3985977 C3.203125,81.2831406 3.92030469,82.0001602 4.8046875,82.0001602 L30.2672891,82.0001602 C31.1516719,82.0001602 31.8688516,81.2831406 31.8688516,80.3985977 C31.8688516,79.5140547 31.1516719,78.7970352 30.2672891,78.7970352 L6.40625,78.7970352 L6.40625,38.2775039 L12.038625,38.2775039 C12.4633594,38.2775039 12.8706367,38.1086992 13.1710898,37.8084062 L36.6757812,14.3037148 L55.6213047,33.2493984 L31.8710938,56.9997695 L31.8710938,42.6017227 L43.0820312,42.6017227 C43.9664141,42.6017227 44.6835937,41.8847031 44.6835937,41.0001602 C44.6835937,40.1156172 43.9664141,39.3985977 43.0820312,39.3985977 L30.2695312,39.3985977 C29.3851484,39.3985977 28.6679687,40.1156172 28.6679687,41.0001602 L28.6679687,59.5782852 C28.6679687,59.7651875 28.7016016,59.9436016 28.7603789,60.1103242 L27.3255391,61.5451641 C24.7902656,64.0804375 24.7902656,68.2057422 27.3255391,70.7410156 C28.5933359,72.0088125 30.2581602,72.6427109 31.9234648,72.6425508 C33.5884492,72.6425508 35.2539141,72.0086523 36.5213906,70.7411758 L50.0276875,57.2348789 C50.6530977,56.6094687 50.6530977,55.5953594 50.0276875,54.9699492 C49.4022773,54.3445391 48.3884883,54.3445391 47.7625977,54.9699492 L37.5298945,65.2026523 L32.8640625,60.5368203 L62.1257305,31.2751523 L66.7915625,35.9409844 L55.6102539,47.1224531 C54.9848437,47.7478633 54.9848437,48.7619727 55.6102539,49.3873828 C56.2358242,50.012793 57.2496133,50.012793 57.8753437,49.3873828 L70.1570859,37.1056406 C70.3215664,36.941 70.4484102,36.7424063 70.5283281,36.5239531 L74.5331953,25.5883242 C74.7476445,25.002793 74.6028633,24.3459922 74.1619531,23.905082 Z M35.265125,67.4674219 L34.2564609,68.4760859 C33.633293,69.0992539 32.8049648,69.4424687 31.923625,69.4424687 C31.0422852,69.4424687 30.2137969,69.0992539 29.5907891,68.4760859 C28.9674609,67.852918 28.6244062,67.0244297 28.6244062,66.14325 C28.6244062,65.2620703 28.9673008,64.4334219 29.5906289,63.8102539 L30.599293,62.8015898 L35.265125,67.4674219 Z M68.4004922,33.0195742 L65.0471406,29.6662227 L70.3383828,27.7284922 L68.4004922,33.0195742 Z" id="Shape"></path>
                            <path d="M53.9228477,51.0739883 C53.6251172,50.7760977 53.2119141,50.6047305 52.7907031,50.6047305 C52.3694922,50.6047305 51.9562891,50.7760977 51.6583984,51.0739883 C51.3605078,51.3734805 51.1891406,51.785082 51.1891406,52.206293 C51.1891406,52.6291055 51.3603477,53.040707 51.6583984,53.3401992 C51.9562891,53.6380898 52.3678906,53.8078555 52.7907031,53.8078555 C53.2119141,53.8078555 53.6251172,53.6380898 53.9228477,53.3401992 C54.2207383,53.040707 54.3922656,52.6275039 54.3922656,52.206293 C54.3922656,51.785082 54.2208984,51.3734805 53.9228477,51.0739883 Z" id="Path"></path>
                            <path d="M36.6757812,24.1837539 C33.3200273,24.1837539 30.5898438,26.9139375 30.5898438,30.2696914 C30.5898438,33.6254453 33.3200273,36.3556289 36.6757812,36.3556289 C40.0315352,36.3556289 42.7617188,33.6254453 42.7617188,30.2696914 C42.7617188,26.9139375 40.0315352,24.1837539 36.6757812,24.1837539 Z M36.6757812,33.1525039 C35.0862305,33.1525039 33.7929688,31.8594023 33.7929688,30.2696914 C33.7929688,28.6801406 35.0862305,27.3868789 36.6757812,27.3868789 C38.265332,27.3868789 39.5585938,28.6801406 39.5585938,30.2696914 C39.5585938,31.8592422 38.265332,33.1525039 36.6757812,33.1525039 Z" id="Shape"></path>
                        </g>
                    </g>
                </g>
            </g>
        </g>
    </g>
</svg>