<?xml version="1.0" encoding="UTF-8"?>
<svg width="82px" height="84px" viewBox="0 0 82 84" version="1.1" xmlns="http://www.w3.org/2000/svg" xmlns:xlink="http://www.w3.org/1999/xlink">
    <!-- Generator: Sketch 63.1 (92452) - https://sketch.com -->
    <title>discount</title>
    <desc>Created with Sketch.</desc>
    <g id="General" stroke="none" stroke-width="1" fill="none" fill-rule="evenodd">
        <g id="01---O-nás---1440-⚠️" transform="translate(-679.000000, -2905.000000)" fill="#FF3037" fill-rule="nonzero">
            <g id="Group-30" transform="translate(363.000000, 2676.000000)">
                <g id="Group-27" transform="translate(0.000000, 229.000000)">
                    <g id="Group-22" transform="translate(262.000000, 0.000000)">
                        <g id="discount" transform="translate(54.000000, 0.000000)">
                            <path d="M41.0310798,0 C42.9834004,0 44.3306158,1.53940289 45.6651455,3.06421724 C46.455461,3.96743507 47.2387995,4.8624071 47.7183168,4.94930388 C48.2092513,5.03873762 49.2634282,4.45329513 50.3112624,3.87102417 C52.0447555,2.9075495 53.7687346,1.95041774 55.5339418,2.60753408 C57.3188119,3.2722618 57.9873454,5.14339414 58.6533416,7.00818375 C59.0478652,8.11183474 59.4404857,9.21168011 59.8159808,9.43177607 C60.1921101,9.65187187 61.3484065,9.44953581 62.5028001,9.24783416 C64.4411664,8.90849315 66.3769956,8.56978655 67.8142791,9.78189983 C69.2439511,10.9883045 69.2350712,12.9577506 69.2261912,14.9271969 C69.2211169,16.0898361 69.2154084,17.2524752 69.4963955,17.5854734 C69.7773823,17.9191059 70.922896,18.1119276 72.069044,18.3047494 C74.0143873,18.6326733 75.9629021,18.9605971 76.9162283,20.5875309 C77.8670173,22.210659 77.2111695,24.0621287 76.5527847,25.9199412 C76.1576268,27.0343751 75.7612005,28.1526144 75.9210396,28.5820236 C76.0808787,29.0101639 77.095096,29.6000465 78.1143873,30.1931002 C79.8421721,31.1978031 81.5801051,32.2082148 81.9245204,34.1053526 C82.2632271,35.9701424 81.0308168,37.5209623 79.7876238,39.0863707 C79.0252167,40.0466738 78.2558323,41.0152228 78.2558323,41.5683168 C78.2558323,42.1220451 79.0252167,43.0905941 79.7876238,44.0508972 C81.0308168,45.6156714 82.2632271,47.1664913 81.9245204,49.031281 C81.5801051,50.9284189 79.8421721,51.9394648 78.1143873,52.9441677 C77.095096,53.5365872 76.0808787,54.1264697 75.9210396,54.5552445 C75.7612005,54.9846535 76.1576268,56.102893 76.5527847,57.2173267 C77.2111695,59.0751392 77.8670173,60.9266089 76.9162283,62.5491028 C75.9629021,64.1766708 74.0143873,64.5045946 72.069044,64.8318842 C70.922896,65.0253404 69.7773823,65.2181622 69.4963955,65.5511603 C69.2154084,65.8847927 69.2211169,67.0474318 69.2261912,68.2100712 C69.2350712,70.1795173 69.2439511,72.1489634 67.8142791,73.3553682 C66.3769956,74.5674814 64.4411664,74.2287748 62.5028001,73.8894337 C61.3484065,73.6877321 60.1921101,73.485396 59.8159808,73.705492 C59.4404857,73.925588 59.0478652,75.0254332 58.6533416,76.1290842 C57.9873454,77.9938738 57.3188119,79.8650061 55.5339418,80.5297338 C53.7687346,81.1868503 52.0447555,80.2290842 50.3112624,79.2662437 C49.2634282,78.6839728 48.2098856,78.0985303 47.7183168,78.1879642 C47.2387995,78.2748608 46.455461,79.1698328 45.6651455,80.0724164 C44.3306158,81.5972308 42.9834004,83.1366337 41.0310798,83.1366337 C39.0793936,83.1366337 37.7321782,81.5972308 36.3970143,80.0724164 C35.6073328,79.1691986 34.8239945,78.2742266 34.3438427,78.1873298 C33.8529084,78.097896 32.7993658,78.6833385 31.7508972,79.2656095 C30.017404,80.2290842 28.2940594,81.1862159 26.5288521,80.5290996 C24.7433477,79.8643719 24.0754486,77.9932395 23.408818,76.1284499 C23.0149288,75.0254332 22.6216738,73.9249535 22.2461788,73.7048576 C21.8706837,73.4847618 20.7143873,73.6870979 19.5593595,73.8894337 C17.6209932,74.2281405 15.6851639,74.5668471 14.2478806,73.3547338 C12.8182085,72.1483292 12.8270885,70.1788831 12.8359684,68.2094368 C12.8416771,67.0467976 12.8467513,65.8841584 12.5657643,65.5511603 C12.2847772,65.2175278 11.1398979,65.024706 9.99311576,64.8318842 C8.04777228,64.5045946 6.09925743,64.1760366 5.14593127,62.5491028 C4.19577665,60.9259747 4.85162434,59.074505 5.51000932,57.2166925 C5.90516716,56.1022586 6.30095924,54.9840192 6.14111997,54.5546101 C5.98191526,54.1264697 4.96769802,53.5365872 3.94777228,52.9435335 C2.22062187,51.9388305 0.482054455,50.9284189 0.138273434,49.031281 C-0.200433168,47.1664913 1.03134274,45.6150371 2.27453581,44.050263 C3.03757731,43.0899598 3.80696155,42.1214109 3.80696155,41.5676826 C3.80696155,41.0145885 3.03757731,40.0460396 2.27453581,39.0857365 C1.03134274,37.5203279 -0.200433168,35.9701424 0.138273434,34.1047184 C0.482054455,32.2075804 2.22062187,31.1971689 3.94777228,30.1924659 C4.96769802,29.599412 5.98191526,29.0095297 6.14111997,28.5813892 C6.30095924,28.1519802 5.90516716,27.0337407 5.51000932,25.9193069 C4.85162434,24.0614945 4.19514241,22.2100248 5.14593127,20.5875309 C6.09925743,18.9599629 8.04777228,18.632039 9.99311576,18.3047494 C11.1398979,18.1112932 12.2847772,17.9184715 12.5657643,17.5854734 C12.8467513,17.251841 12.8416771,16.0892018 12.8359684,14.9265625 C12.8270885,12.9571163 12.8182085,10.9870358 14.2478806,9.78189983 C15.6851639,8.56978655 17.6209932,8.90785891 19.5593595,9.24719992 C20.7143873,9.44890157 21.8706837,9.65123762 22.2461788,9.43114167 C22.6216738,9.21168011 23.0149288,8.1112005 23.408818,7.0075495 C24.0748144,5.14339414 24.7439821,3.27162756 26.5288521,2.60689983 C28.2940594,1.94978333 30.017404,2.9075495 31.7508972,3.87038993 C32.7993658,4.45266089 33.8529084,5.03810338 34.3438427,4.94866947 C34.8239945,4.86177286 35.6073328,3.96680082 36.3970143,3.06421724 C37.7321782,1.53940289 39.0793936,0 41.0310798,0 Z M61.1530476,20.9750773 C60.2561727,20.9750773 59.5292852,21.7019648 59.5292852,22.5988397 C59.5292852,22.9984375 59.6739016,23.3644183 59.9136603,23.6473081 L59.9136603,23.6479425 L59.9130259,23.6473081 L59.9181002,23.6530167 C59.951083,23.6917079 59.9859684,23.7284962 60.0221226,23.7633818 C64.3891554,28.419013 67.063289,34.681281 67.063289,41.5683168 C67.063289,48.7572711 64.1500309,55.2650061 59.4392172,59.9758199 C54.7284035,64.6872679 48.2200341,67.6005259 41.0310798,67.6005259 C37.9535427,67.6005259 35.0009592,67.0664604 32.2608602,66.0858602 C32.2120204,66.0655632 32.1612778,66.0478031 32.109901,66.0319461 L32.1060952,66.0300434 L32.1060952,66.0306776 C31.957039,65.9856436 31.7984684,65.9609065 31.6348237,65.9609065 C30.738583,65.9609065 30.0110613,66.687794 30.0110613,67.5846689 C30.0110613,68.3204362 30.5007271,68.9413985 31.1711634,69.1411974 C34.2518719,70.2429455 37.5717049,70.8436108 41.0310798,70.8436108 C49.1150061,70.8436108 56.4339882,67.5662748 61.731513,62.26875 C67.0296721,56.970591 70.3063738,49.6522432 70.3063738,41.5683168 C70.3063738,33.8326114 67.3055847,26.7984219 62.405755,21.5649598 C62.1076424,21.2046875 61.657302,20.9750773 61.1530476,20.9750773 L61.1530476,20.9750773 Z M56.2525836,16.8535118 C55.3563427,16.8535118 54.6288212,17.5803991 54.6288212,18.4772742 C54.6288212,19.3735149 55.3563427,20.1010366 56.2525836,20.1010366 C57.1494585,20.1010366 57.876346,19.3735149 57.876346,18.4772742 C57.876346,17.5803991 57.1494585,16.8535118 56.2525836,16.8535118 Z M50.9823328,14.0284189 C47.8756188,12.9057395 44.5253404,12.2930229 41.0310798,12.2930229 C32.9471535,12.2930229 25.6288058,15.5697247 20.3306466,20.8678837 C15.0331219,26.1654084 11.755786,33.4843905 11.755786,41.5683168 C11.755786,49.2875309 14.7438892,56.3084004 19.6253248,61.5386912 C19.9234375,61.8951578 20.3712407,62.1222308 20.8723237,62.1222308 C21.7691986,62.1222308 22.4960861,61.3953435 22.4960861,60.4984684 C22.4960861,60.1001392 22.3527382,59.7354269 22.1142481,59.4531714 L22.1142481,59.4519029 L22.1079054,59.4449257 C22.0761912,59.4075031 22.0425743,59.3719833 22.0076887,59.3383663 C17.6603187,54.6859065 14.9988707,48.4382271 14.9988707,41.5683168 C14.9988707,34.3793625 17.912763,27.8709932 22.6235767,23.1608138 C27.3343905,18.4493658 33.8427599,15.5361078 41.0310798,15.5361078 C44.137794,15.5361078 47.1170173,16.0803218 49.8793163,17.078682 L49.8799505,17.078682 C50.0753094,17.1617729 50.2896969,17.2074412 50.5155012,17.2074412 C51.4123762,17.2074412 52.1392635,16.4805539 52.1392635,15.5836788 C52.1392635,14.8491801 51.6515006,14.2288521 50.9823328,14.0284189 Z M25.8095762,63.0355971 C24.9133355,63.0355971 24.1858138,63.7624846 24.1858138,64.6593595 C24.1858138,65.5562346 24.9133355,66.2831219 25.8095762,66.2831219 C26.7064511,66.2831219 27.4333385,65.5562346 27.4333385,64.6593595 C27.4333385,63.7624846 26.7064511,63.0355971 25.8095762,63.0355971 Z M31.5777382,25.6097772 C33.4393564,25.6097772 35.1246441,26.3639387 36.3450031,27.5842976 C37.5647277,28.8046565 38.3195236,30.4899444 38.3195236,32.3515625 C38.3195236,34.2125465 37.5647277,35.8984684 36.3450031,37.1181931 C35.1246441,38.338552 33.4393564,39.0933477 31.5777382,39.0933477 C29.71612,39.0933477 28.0308323,38.338552 26.8104734,37.1181931 C25.5907487,35.8984684 24.835953,34.2125465 24.835953,32.3515625 C24.835953,30.4899444 25.5907487,28.8046565 26.8104734,27.5842976 C28.0308323,26.3639387 29.71612,25.6097772 31.5777382,25.6097772 Z M31.5777382,28.8522277 C30.6117266,28.8522277 29.736417,29.244214 29.1034035,29.8772277 C28.4703899,30.5102414 28.0790377,31.3849164 28.0790377,32.3515625 C28.0790377,33.3175743 28.4703899,34.1928837 29.1034035,34.8258972 C29.736417,35.4582766 30.6117266,35.850263 31.5777382,35.850263 C32.5443842,35.850263 33.4190594,35.4589109 34.0520731,34.8258972 C34.6850866,34.1928837 35.0764387,33.3175743 35.0764387,32.3515625 C35.0764387,31.3849164 34.6850866,30.5102414 34.0520731,29.8772277 C33.4190594,29.244214 32.5443842,28.8522277 31.5777382,28.8522277 Z M49.1359375,26.3442761 L30.22862,55.0189048 C29.7389543,55.7641862 29.9457302,56.7650836 30.6910118,57.2547494 C31.4362932,57.7444153 32.4371906,57.5376392 32.9268564,56.7923576 L51.8341738,28.1177289 C52.3238397,27.3724474 52.1170638,26.3715501 51.3717822,25.8818842 C50.6265006,25.3922184 49.6256034,25.5989945 49.1359375,26.3442761 Z M50.4850556,44.043286 C52.3466738,44.043286 54.0319616,44.7980817 55.2516862,46.0178064 C56.4720451,47.2381653 57.226841,48.923453 57.226841,50.7850712 C57.226841,52.6466893 56.4720451,54.3319771 55.2516862,55.5523361 C54.0319616,56.7720606 52.3466738,57.5268564 50.4850556,57.5268564 C48.6234375,57.5268564 46.9381497,56.7720606 45.7177909,55.5523361 C44.4980663,54.3319771 43.7432704,52.6466893 43.7432704,50.7850712 C43.7432704,48.9240872 44.4980663,47.2381653 45.7177909,46.0178064 C46.9375154,44.7980817 48.6234375,44.043286 50.4850556,44.043286 Z M50.4850556,47.2863707 C49.5184097,47.2863707 48.6437346,47.6777228 48.0107209,48.3107365 C47.3777073,48.94375 46.9857209,49.8190594 46.9857209,50.7850712 C46.9857209,51.7517172 47.3777073,52.6263922 48.0107209,53.2594059 C48.6437346,53.8924196 49.5184097,54.2837717 50.4850556,54.2837717 C51.4510674,54.2837717 52.3263768,53.8924196 52.9587563,53.2594059 C53.592404,52.6263922 53.9837563,51.7517172 53.9837563,50.7850712 C53.9837563,49.8190594 53.592404,48.9443842 52.9587563,48.3107365 C52.3263768,47.678357 51.4510674,47.2863707 50.4850556,47.2863707 Z M43.2333075,5.19286823 C42.3840038,4.22241642 41.5270885,3.24308474 41.031714,3.24308474 C40.5357054,3.24308474 39.6787902,4.22241642 38.8294863,5.19286823 C37.6668471,6.52105503 36.5137222,7.83845924 34.9140625,8.1289604 C33.2903001,8.42390157 31.7312346,7.55747219 30.1804147,6.69548267 C29.0995979,6.09481741 28.0244895,5.49795792 27.6566059,5.63496287 C27.2937965,5.77006493 26.8770731,6.93587566 26.4622525,8.09724637 C25.8717357,9.7495514 25.2837563,11.3967822 23.8807239,12.2181776 C22.4681776,13.0459158 20.7340501,12.7427289 19.0024598,12.4395421 C17.8068378,12.2308633 16.6118503,12.0215501 16.3391089,12.2524288 C16.056219,12.4909189 16.0612932,13.7030322 16.0670019,14.9145111 C16.0752475,16.6746441 16.0828589,18.4347772 15.0362932,19.6760674 C13.9928991,20.913552 12.2600402,21.2053218 10.5252784,21.4970916 C9.32458226,21.6994276 8.12071477,21.9017635 7.93360149,22.2220762 C7.74712261,22.5398515 8.15433168,23.689805 8.56344365,24.8429301 C9.15205751,26.504115 9.74257426,28.1703743 9.16918317,29.709143 C8.60340347,31.2282487 7.09064051,32.1079981 5.56963177,32.9928218 C4.48500932,33.6232982 3.39340973,34.2582148 3.31793011,34.6755724 C3.24118201,35.0986386 4.02134901,36.0805074 4.80849315,37.0718905 C5.92482979,38.4768256 7.05068069,39.8938119 7.05068069,41.5683168 C7.05068069,43.243456 5.92482979,44.6598081 4.80849315,46.0653774 C4.02134901,47.0561262 3.24118201,48.037995 3.31793011,48.4616955 C3.39340973,48.8790533 4.48500932,49.5133355 5.56963177,50.1444461 C7.09064051,51.0286356 8.60340347,51.908385 9.16918317,53.4274907 C9.74257426,54.9668936 9.15205751,56.6331529 8.56344365,58.2943378 C8.15433168,59.4474629 7.74712261,60.5967822 7.93360149,60.9151919 C8.12071477,61.2348701 9.32394802,61.4378404 10.5252784,61.6395421 C12.2606744,61.9319461 13.9928991,62.2230817 15.0362932,63.4612005 C16.0828589,64.7018564 16.0752475,66.4619895 16.0670019,68.2227568 C16.0612932,69.4342357 16.056219,70.6457148 16.3391089,70.8848391 C16.6124846,71.1150836 17.8068378,70.9064048 19.0024598,70.6970916 C20.7340501,70.394539 22.4681776,70.0907178 23.8807239,70.918456 C25.2837563,71.7398515 25.8723701,73.3870823 26.4622525,75.0393873 C26.8770731,76.200758 27.2937965,77.367203 27.6566059,77.5016708 C28.0244895,77.6386757 29.0995979,77.0418163 30.1804147,76.441151 C31.7312346,75.5797959 33.2903001,74.7133663 34.9140625,75.0083075 C36.5143564,75.2981744 37.6668471,76.6155786 38.8294863,77.9443998 C39.6787902,78.9148515 40.5357054,79.8941832 41.031714,79.8941832 C41.5270885,79.8941832 42.3840038,78.9148515 43.2333075,77.9443998 C44.3959467,76.6155786 45.5490718,75.2981744 47.1480971,75.0083075 C48.7718595,74.7133663 50.3315594,75.5797959 51.8823793,76.441151 C52.9631961,77.0418163 54.0383045,77.6386757 54.4061881,77.5016708 C54.7689975,77.367203 55.1857209,76.200758 55.6005415,75.0393873 C56.1910582,73.3870823 56.7790377,71.7404857 58.1814356,70.918456 C59.5946163,70.0907178 61.3281095,70.3939048 63.0596999,70.6970916 C64.255956,70.9064048 65.4503094,71.1157178 65.7243193,70.8848391 C66.0065748,70.6457148 66.0015006,69.4342357 65.9957921,68.2227568 C65.9875465,66.4626238 65.9799351,64.7018564 67.0265006,63.4612005 C68.0698949,62.2230817 69.8021194,61.9319461 71.5368812,61.6395421 C72.7382117,61.4378404 73.9420792,61.2348701 74.1291925,60.9151919 C74.3156714,60.5967822 73.9084623,59.4474629 73.4993503,58.2943378 C72.9107365,56.6331529 72.3202197,54.9668936 72.8936108,53.4274907 C73.4587563,51.908385 74.9721535,51.0286356 76.4925278,50.1444461 C77.5777847,49.5133355 78.66875,48.8790533 78.7448639,48.4616955 C78.821612,48.037995 78.041445,47.0561262 77.2543008,46.0653774 C76.1379642,44.6598081 75.0121133,43.243456 75.0121133,41.5683168 C75.0121133,39.8938119 76.1379642,38.4768256 77.2543008,37.0718905 C78.041445,36.0805074 78.821612,35.0986386 78.7448639,34.6755724 C78.66875,34.2582148 77.5777847,33.6232982 76.4925278,32.9928218 C74.9721535,32.1079981 73.4587563,31.2282487 72.8936108,29.709143 C72.3202197,28.1703743 72.9107365,26.504115 73.4993503,24.8429301 C73.9084623,23.689805 74.3156714,22.5398515 74.1291925,22.2220762 C73.9420792,21.9017635 72.7382117,21.6994276 71.5368812,21.4970916 C69.8021194,21.2053218 68.0698949,20.913552 67.0265006,19.6760674 C65.9799351,18.4347772 65.9875465,16.6746441 65.9957921,14.9145111 C66.0015006,13.7030322 66.0065748,12.4909189 65.7243193,12.2524288 C65.4503094,12.0215501 64.255956,12.2308633 63.0596999,12.4395421 C61.3281095,12.7427289 59.5946163,13.0459158 58.1820699,12.2181776 C56.7790377,11.3967822 56.1904238,9.7495514 55.6005415,8.09724637 C55.1857209,6.93587566 54.7689975,5.77006493 54.4061881,5.63496287 C54.0383045,5.49795792 52.9631961,6.09481741 51.8823793,6.69548267 C50.3309252,7.55747219 48.7718595,8.42390157 47.1480971,8.1289604 C45.5484375,7.83845924 44.3959467,6.52105503 43.2333075,5.19286823 L43.2333075,5.19286823 Z" id="Shape"></path>
                        </g>
                    </g>
                </g>
            </g>
        </g>
    </g>
</svg>