<?xml version="1.0" encoding="UTF-8"?>
<svg width="64px" height="83px" viewBox="0 0 64 83" version="1.1" xmlns="http://www.w3.org/2000/svg" xmlns:xlink="http://www.w3.org/1999/xlink">
    <!-- Generator: Sketch 61.2 (89653) - https://sketch.com -->
    <title>document</title>
    <desc>Created with Sketch.</desc>
    <g id="General" stroke="none" stroke-width="1" fill="none" fill-rule="evenodd">
        <g id="Homepage---1440-⚠️" transform="translate(-1023.000000, -1509.000000)" fill="#FF3037" fill-rule="nonzero">
            <g id="Group-30" transform="translate(0.000000, 1185.000000)">
                <g id="Group-41" transform="translate(960.000000, 324.000000)">
                    <g id="document" transform="translate(63.000000, 0.000000)">
                        <path d="M0.0159545255,9.68325729 L0.0159545255,81.6165147 C0.0159545255,82.3806225 0.635332033,83 1.39943981,83 L53.9661825,83 C54.7297204,83 55.3490979,82.3806225 55.3490979,81.6165147 L55.3490979,23.5169706 C55.3490979,23.486201 55.334283,23.4599901 55.3314339,23.4297905 C55.3245964,23.308422 55.3006645,23.1887632 55.2607783,23.0742325 C55.2453935,23.0297877 55.2345672,22.9870525 55.2151939,22.9437472 C55.1479569,22.7933188 55.054509,22.655996 54.9382689,22.5386163 L41.1051255,8.70547294 C40.9877457,8.58866291 40.8498531,8.49521498 40.6982851,8.42854789 C40.6566894,8.41088392 40.6145239,8.39606907 40.5712186,8.38296353 C40.4555484,8.34307715 40.3353196,8.31914543 40.2128116,8.31116809 C40.1894497,8.31515676 40.1620991,8.30034192 40.133039,8.30034192 L1.39943981,8.30034192 C0.635332033,8.30034192 0.0159545255,8.91914951 0.0159545255,9.68325729 Z M50.6265583,22.1334853 L41.5159545,22.1334853 L41.5159545,13.0228815 L50.6265583,22.1334853 Z M2.78235532,11.0667427 L38.7495537,11.0667427 L38.7495537,23.5169706 C38.7495537,24.2805086 39.3689312,24.8998861 40.1324692,24.8998861 L52.5826971,24.8998861 L52.5826971,80.2335992 L2.78235532,80.2335992 L2.78235532,11.0667427 Z" id="Shape"></path>
                        <path d="M58.1160684,71.9332573 L58.1160684,74.6996581 L62.2659545,74.6996581 C63.0300623,74.6996581 63.6494398,74.0808505 63.6494398,73.3167427 L63.6494398,1.38348528 C63.6494398,0.619377508 63.0300623,5.68434189e-14 62.2659545,5.68434189e-14 L9.69921196,5.68434189e-14 C8.93510404,5.68434189e-14 8.31572653,0.619377508 8.31572653,1.38348528 L8.31572653,5.53337136 L11.0826971,5.53337136 L11.0826971,2.76640079 L60.8824692,2.76640079 L60.8824692,71.9332573 L58.1160684,71.9332573 Z" id="Path"></path>
                        <polygon id="Path" points="11.0826971 27.6668566 44.2823553 27.6668566 44.2823553 30.4332573 11.0826971 30.4332573"></polygon>
                        <polygon id="Path" points="11.0826971 19.3665147 22.1494398 19.3665147 22.1494398 22.1334853 11.0826971 22.1334853"></polygon>
                        <polygon id="Path" points="11.0826971 35.9666286 33.2161825 35.9666286 33.2161825 38.7335992 11.0826971 38.7335992"></polygon>
                        <polygon id="Path" points="35.9825832 35.9666286 44.2823553 35.9666286 44.2823553 38.7335992 35.9825832 38.7335992"></polygon>
                        <polygon id="Path" points="11.0826971 44.2664008 44.2823553 44.2664008 44.2823553 47.0333714 11.0826971 47.0333714"></polygon>
                        <polygon id="Path" points="11.0826971 60.8665147 44.2823553 60.8665147 44.2823553 63.6334853 11.0826971 63.6334853"></polygon>
                        <polygon id="Path" points="23.5323553 52.5667427 44.2823553 52.5667427 44.2823553 55.3331434 23.5323553 55.3331434"></polygon>
                        <polygon id="Path" points="11.0826971 52.5667427 20.7659545 52.5667427 20.7659545 55.3331434 11.0826971 55.3331434"></polygon>
                        <polygon id="Path" points="11.0826971 69.1668566 16.6160684 69.1668566 16.6160684 71.9332573 11.0826971 71.9332573"></polygon>
                        <polygon id="Path" points="19.3824692 69.1668566 44.2823553 69.1668566 44.2823553 71.9332573 19.3824692 71.9332573"></polygon>
                    </g>
                </g>
            </g>
        </g>
    </g>
</svg>