<?xml version="1.0" encoding="UTF-8"?>
<svg width="83px" height="83px" viewBox="0 0 83 83" version="1.1" xmlns="http://www.w3.org/2000/svg" xmlns:xlink="http://www.w3.org/1999/xlink">
    <!-- Generator: Sketch 61.2 (89653) - https://sketch.com -->
    <title>Group</title>
    <desc>Created with Sketch.</desc>
    <g id="General" stroke="none" stroke-width="1" fill="none" fill-rule="evenodd">
        <g id="Homepage---1440-⚠️" transform="translate(-504.000000, -1282.000000)" fill="#FF3037" fill-rule="nonzero">
            <g id="Group-30" transform="translate(0.000000, 1185.000000)">
                <g id="Group-34" transform="translate(450.000000, 97.000000)">
                    <g id="Group" transform="translate(54.000000, 0.000000)">
                        <path d="M73.2734375,27.8828125 C73.6997852,27.8828125 74.1180273,27.7093555 74.4193887,27.4076699 C74.7210742,27.1063086 74.8945312,26.6880664 74.8945312,26.2617188 C74.8945312,25.8353711 74.7210742,25.4171289 74.4193887,25.1156055 C74.1180273,24.814082 73.6997852,24.640625 73.2734375,24.640625 C72.8470898,24.640625 72.4288477,24.8139199 72.1273242,25.1156055 C71.8258008,25.417291 71.6523438,25.8353711 71.6523438,26.2617188 C71.6523438,26.6880664 71.8256387,27.1063086 72.1273242,27.4076699 C72.4288477,27.7093555 72.8470898,27.8828125 73.2734375,27.8828125 Z" id="XMLID_699_-Copy"></path>
                        <path d="M30.176498,71.9765625 L30.1523437,71.9765625 C29.2571758,71.9765625 28.53125,72.7024883 28.53125,73.5976562 C28.53125,74.4928242 29.2571758,75.21875 30.1523437,75.21875 L30.176498,75.21875 C31.071666,75.21875 31.7975918,74.4928242 31.7975918,73.5976562 C31.7975918,72.7024883 31.071666,71.9765625 30.176498,71.9765625 Z" id="XMLID_698_-Copy"></path>
                        <path d="M83,65.101666 L83,11.3476562 C83,8.66604297 80.818332,6.484375 78.1367188,6.484375 L72.5838242,6.484375 L72.5838242,5.51171875 C72.5838242,2.47249219 70.111332,0 67.0721055,0 C64.0328789,0 61.5603867,2.47249219 61.5603867,5.51171875 L61.5603867,6.484375 L46.9911309,6.484375 L46.9911309,5.51171875 C46.9911309,2.47249219 44.5186387,0 41.4794121,0 C38.4401855,0 35.9676934,2.47249219 35.9676934,5.51171875 L35.9676934,6.484375 L21.3984375,6.484375 L21.3984375,5.51171875 C21.3984375,2.47249219 18.9259453,0 15.8867188,0 C12.8474922,0 10.375,2.47249219 10.375,5.51171875 L10.375,6.484375 L4.86328125,6.484375 C2.18166797,6.484375 0,8.66604297 0,11.3476562 L0,78.1367188 C0,80.818332 2.18166797,83 4.86328125,83 L65.101666,83 C65.5490879,83 65.9541992,82.8185996 66.2474551,82.5255059 L82.5251816,66.2479414 C82.8184375,65.9545234 83,65.54925 83,65.101666 Z M64.8025742,5.51171875 C64.8025742,4.26023438 65.8206211,3.2421875 67.0721055,3.2421875 C68.3235898,3.2421875 69.3416367,4.26023438 69.3416367,5.51171875 L69.3416367,13.4550781 C69.3416367,14.7065625 68.3235898,15.7246094 67.0721055,15.7246094 C65.8206211,15.7246094 64.8025742,14.7065625 64.8025742,13.4550781 L64.8025742,5.51171875 Z M39.2098809,5.51171875 C39.2098809,4.26023438 40.2279277,3.2421875 41.4794121,3.2421875 C42.7308965,3.2421875 43.7489434,4.26023438 43.7489434,5.51171875 L43.7489434,13.4550781 C43.7489434,14.7065625 42.7308965,15.7246094 41.4794121,15.7246094 C40.2279277,15.7246094 39.2098809,14.7065625 39.2098809,13.4550781 L39.2098809,5.51171875 Z M13.6171875,5.51171875 C13.6171875,4.26023438 14.6352344,3.2421875 15.8867188,3.2421875 C17.1382031,3.2421875 18.15625,4.26023438 18.15625,5.51171875 L18.15625,13.4550781 C18.15625,14.7065625 17.1382031,15.7246094 15.8867188,15.7246094 C14.6352344,15.7246094 13.6171875,14.7065625 13.6171875,13.4550781 L13.6171875,5.51171875 Z M3.2421875,78.1367188 L3.2421875,75.1647676 L25.3701172,75.1647676 C25.3701172,75.1647676 25.3701172,71.9225801 25.3701172,71.9225801 L3.2421875,71.9225801 L3.2421875,27.8828125 L68.4101562,27.8828125 C68.4101562,27.8828125 68.4101562,24.640625 68.4101562,24.640625 L3.2421875,24.640625 L3.2421875,11.3476562 C3.2421875,10.4537852 3.96941016,9.7265625 4.86328125,9.7265625 L10.375,9.7265625 L10.375,13.4550781 C10.375,16.4943047 12.8474922,18.9667969 15.8867188,18.9667969 C18.9259453,18.9667969 21.3984375,16.4943047 21.3984375,13.4550781 L21.3984375,9.7265625 L35.9676934,9.7265625 L35.9676934,13.4550781 C35.9676934,16.4943047 38.4401855,18.9667969 41.4794121,18.9667969 C44.5186387,18.9667969 46.9911309,16.4943047 46.9911309,13.4550781 L46.9911309,9.7265625 L61.5603867,9.7265625 L61.5603867,13.4550781 C61.5603867,16.4943047 64.0328789,18.9667969 67.0721055,18.9667969 C70.111332,18.9667969 72.5838242,16.4943047 72.5838242,13.4550781 L72.5838242,9.7265625 L78.1367188,9.7265625 C79.0305898,9.7265625 79.7578125,10.4537852 79.7578125,11.3476562 L79.7578125,63.4805723 L68.3438535,63.4805723 C65.6622402,63.4805723 63.4805723,65.6622402 63.4805723,68.3438535 L63.4805723,79.7578125 L4.86328125,79.7578125 C3.96941016,79.7578125 3.2421875,79.0305898 3.2421875,78.1367188 Z M66.7227598,77.4650996 L66.7227598,68.3436914 C66.7227598,67.4498203 67.4499824,66.7225977 68.3438535,66.7225977 L77.4652617,66.7225977 L66.7227598,77.4650996 Z" id="XMLID_691_"></path>
                        <path d="M31.7283741,56.8214434 L31.7283741,51.2265625 L31.7283741,45.6316816 C31.7283741,43.8898164 30.3112139,42.4726562 28.5693487,42.4726562 L19.9394531,42.4726562 L19.9394531,45.7148438 L28.4861866,45.7148437 L28.4861866,49.6054687 L19.9394531,49.6054687 L19.9394531,52.8476563 L28.4861866,52.8476562 L28.4861866,56.7382812 L19.9394531,56.7382812 L19.9394531,59.9804688 L28.5693487,59.9804688 C30.3110518,59.9804688 31.7283741,58.5633086 31.7283741,56.8214434 Z" id="XMLID_690_"></path>
                        <path d="M47.4751895,42.4726562 L38.8328145,42.4726562 C37.0909492,42.4726562 35.6737891,43.8898164 35.6737891,45.6316816 L35.6737891,51.2265625 L35.6737891,56.8214434 C35.6737891,58.5633086 37.0909492,59.9804688 38.8328145,59.9804688 L44.3161641,59.9804688 C46.0580293,59.9804688 47.4751895,58.5633086 47.4751895,56.8214434 L47.4751895,52.7646562 C47.4751895,51.022791 46.0580293,49.6056309 44.3161641,49.6056309 L41.9312109,49.6056309 L38.9159766,49.6056309 L38.9159766,45.7150059 L47.4751895,45.7150059 L47.4751895,42.4726562 Z M41.9312109,52.8476562 L44.2331641,52.8476562 L44.2331641,56.7382812 L38.9159766,56.7382812 L38.9159766,52.8476562 L41.9312109,52.8476562 Z" id="XMLID_687_"></path>
                        <path d="M60.0085137,49.6054687 L57.2669199,49.6054687 L54.6083262,49.6054687 L54.6083262,45.7148437 L63.1675391,45.7148437 L63.1675391,42.4726562 L54.5251641,42.4726562 C52.7832988,42.4726562 51.3661387,43.8898164 51.3661387,45.6316816 L51.3661387,49.6884687 C51.3661387,51.430334 52.7832988,52.8474941 54.5251641,52.8474941 L57.2669199,52.8474941 L59.9253516,52.8474941 L59.9253516,56.7381191 L51.3661387,56.8212812 L51.3661387,59.9803066 L60.0085137,59.9803066 C61.7503789,59.9803066 63.1675391,58.5631465 63.1675391,56.8212812 L63.1675391,52.7644941 C63.1675391,51.0226289 61.7503789,49.6054687 60.0085137,49.6054687 Z" id="XMLID_686_"></path>
                    </g>
                </g>
            </g>
        </g>
    </g>
</svg>