<?xml version="1.0" encoding="UTF-8"?>
<svg width="83px" height="61px" viewBox="0 0 83 61" version="1.1" xmlns="http://www.w3.org/2000/svg" xmlns:xlink="http://www.w3.org/1999/xlink">
    <!-- Generator: Sketch 61.2 (89653) - https://sketch.com -->
    <title>motorway</title>
    <desc>Created with Sketch.</desc>
    <g id="General" stroke="none" stroke-width="1" fill="none" fill-rule="evenodd">
        <g id="Homepage---1440-⚠️" transform="translate(-1014.000000, -1293.000000)" fill="#FF3037" fill-rule="nonzero">
            <g id="Group-30" transform="translate(0.000000, 1185.000000)">
                <g id="Group-32" transform="translate(960.000000, 108.000000)">
                    <g id="motorway" transform="translate(54.000000, 0.000000)">
                        <path d="M25.2047669,-1.52989457e-06 L20.9555811,-1.52989457e-06 C19.8398554,0.0885645771 18.9000867,0.868583075 18.6075322,1.94890687 L0.193427212,57.9381462 C-0.0185625372,58.5612029 0.0847288368,59.2483711 0.470521014,59.7815724 C0.972172708,60.4228187 1.75235686,60.7826824 2.56577539,60.7480182 L2.56908891,60.7480182 L10.9183518,60.7386299 C12.258603,60.791298 13.4706637,59.9470735 13.8858924,58.6716785 L27.0225133,2.69514105 C27.2089896,2.0072444 27.0703818,1.27183501 26.6462898,0.6990164 C26.2986228,0.257006102 25.7671235,-0.000726049268 25.2047669,-1.52989457e-06 Z M2.49025455,57.9799795 C2.5176358,57.9893529 2.54335855,58.0030065 2.56646571,58.0204322 L2.56784634,59.3673814 L2.49025455,57.9799795 Z M11.2318944,57.8957607 C11.1345156,57.9490383 11.0253482,57.9770897 10.9143479,57.9773563 L3.08489481,57.9867446 L21.230604,2.81180486 C21.2359563,2.79434573 21.2429361,2.77742771 21.2514516,2.76127355 L24.1710842,2.76127355 L11.2318944,57.8957607 Z" id="Shape"></path>
                        <path d="M52.1501027,0 L30.8606836,0 C29.7200324,0.105439258 28.8166573,1.00910451 28.7115844,2.14978953 L19.4488922,58.1081026 C19.3383774,58.7388202 19.5123842,59.3861278 19.9242455,59.8764222 C20.4155684,60.4365555 21.1294886,60.7506805 21.8743949,60.7350845 L41.5053931,60.7065991 L61.1380481,60.7342118 C61.8823183,60.7500011 62.5954833,60.4358971 63.0862646,59.8761461 C63.4962159,59.3896037 63.670882,58.7471069 63.5636888,58.1199761 L54.2971309,2.13763992 C54.1886744,1.00147425 53.2867327,0.103476421 52.1501027,0 L52.1501027,0 Z M41.5053931,2.76127355 L43.0013131,2.76127355 L43.1657469,9.66445744 L39.8450393,9.66445744 L40.0094732,2.76127355 L41.5053931,2.76127355 Z M38.7508847,57.9226831 L38.9187701,49.7171445 L41.4979377,49.702924 L44.0920161,49.7230813 L44.2605919,57.9449113 L38.7508847,57.9226831 Z M47.0226938,57.9533332 L46.8466626,49.3975271 C46.7726641,47.989415 45.5812328,46.9019288 44.1722311,46.9564232 L41.4979377,46.9416504 L38.8458725,46.9564232 C37.4336771,46.9000326 36.2382637,47.9888413 36.162881,49.4001503 L35.9886447,57.952919 L22.2709138,57.9718338 L31.4249498,2.76127355 L37.2475093,2.76127355 L37.0742394,10.0339158 C37.053581,10.6804536 37.2930424,11.308275 37.739016,11.7768317 C38.135143,12.1901627 38.6824541,12.4244397 39.2549552,12.425731 L43.7558311,12.425731 C44.3283802,12.4244772 44.875748,12.1901972 45.2719083,11.7768317 C45.7173177,11.3092588 45.9567591,10.6826835 45.9366849,10.0372294 L45.7632769,2.76127355 L51.6012995,2.76127355 L60.741115,57.9729383 L47.0226938,57.9533332 Z" id="Shape"></path>
                        <path d="M72.0938151,60.7386299 L80.441007,60.7480182 L80.4436302,60.7480182 C81.2576568,60.7826974 82.0383967,60.4224548 82.5402652,59.780606 C82.9260104,59.2475097 83.028966,58.5603327 82.8163926,57.937594 L64.4038063,1.94959719 C64.1111757,0.868985945 63.171217,0.0887169718 62.0552051,-2.11228461e-06 L57.8060193,-2.11228461e-06 C57.2435175,-0.000853343979 56.711839,0.256891606 56.3640822,0.6990164 C55.9400539,1.27213314 55.8016023,2.0077784 55.9882729,2.69583137 L69.125308,58.6709882 C69.5406234,59.9468369 70.7531079,60.7913636 72.0938151,60.7386299 L72.0938151,60.7386299 Z M61.7593346,2.76127355 C61.7676889,2.77759196 61.7748858,2.79447733 61.7808726,2.81180486 L79.9258914,57.9867446 L72.0976809,57.9780466 C71.9866686,57.977874 71.8774783,57.9498169 71.7801344,57.896451 L58.8402543,2.76127355 L61.7593346,2.76127355 Z" id="Shape"></path>
                        <path d="M39.0892788,26.2320988 L43.9215075,26.2320988 C44.5847379,26.2391852 45.2229465,25.9792148 45.6924503,25.510716 C46.0939833,25.1041094 46.3119392,24.5510901 46.2957885,23.979866 L46.1163058,17.349634 C46.0644438,16.1215438 45.0399541,15.1604365 43.8110565,15.1870045 L39.1997297,15.1870045 C37.9697277,15.1604711 36.944688,16.123149 36.8940663,17.3523953 L36.7145835,23.977795 C36.6981386,24.5495602 36.9161047,25.1032038 37.3179218,25.5103019 C37.7874581,25.9790555 38.4258452,26.2391871 39.0892788,26.2320988 L39.0892788,26.2320988 Z M39.6407051,17.9482781 L43.3700811,17.9482781 L43.5197422,23.4708252 L39.4910441,23.4708252 L39.6407051,17.9482781 Z" id="Shape"></path>
                        <path d="M43.9905393,30.3740091 L39.0202469,30.3740091 C37.7027632,30.3548481 36.6054888,31.3799463 36.5351007,32.6956879 L36.3556179,40.4226978 C36.3412204,41.0206537 36.5712726,41.5986263 36.9926437,42.0231319 C37.5018436,42.5283914 38.1925091,42.8081692 38.909796,42.7997401 L44.1009903,42.7997401 C44.8180864,42.8080206 45.5085253,42.5282542 46.0175902,42.0231319 C46.4380728,41.5999619 46.6680807,41.0237955 46.654616,40.4273919 L46.4751333,32.6909937 C46.4026758,31.3771616 45.306226,30.3546777 43.9905393,30.3740091 L43.9905393,30.3740091 Z M39.1272463,40.0363956 L39.2875382,33.1352827 L43.723248,33.1352827 L43.8838161,40.0384665 L39.1272463,40.0363956 Z" id="Shape"></path>
                    </g>
                </g>
            </g>
        </g>
    </g>
</svg>